<?xml version="1.0" encoding="utf-8"?>
<!-- Generator: Adobe Illustrator 23.0.2, SVG Export Plug-In . SVG Version: 6.00 Build 0)  -->
<svg version="1.1" id="Слой_1" xmlns="http://www.w3.org/2000/svg" xmlns:xlink="http://www.w3.org/1999/xlink" x="0px" y="0px"
	 viewBox="0 0 58 53" style="enable-background:new 0 0 58 53;" xml:space="preserve">
<style type="text/css">
	.st0{filter:url(#Adobe_OpacityMaskFilter);}
	.st1{fill-rule:evenodd;clip-rule:evenodd;fill:#FFFFFF;}
	.st2{mask:url(#icon_bank-b_1_);fill-rule:evenodd;clip-rule:evenodd;fill:#01AFFF;}
</style>
<g>
	<defs>
		<filter id="Adobe_OpacityMaskFilter" filterUnits="userSpaceOnUse" x="0" y="0" width="58" height="52.6">
			<feColorMatrix  type="matrix" values="1 0 0 0 0  0 1 0 0 0  0 0 1 0 0  0 0 0 1 0"/>
		</filter>
	</defs>
	<mask maskUnits="userSpaceOnUse" x="0" y="0" width="58" height="52.6" id="icon_bank-b_1_">
		<g class="st0">
			<polygon id="icon_bank-a_1_" class="st1" points="0,0 0,52.6 58,52.6 58,0 			"/>
		</g>
	</mask>
	<path class="st2" d="M2,18.3h54c0.9,0,1.7-0.6,2-1.5c0.2-0.9-0.2-1.8-1-2.3l-27-14.2c-0.6-0.3-1.3-0.3-1.9,0l-27,14.2
		c-0.8,0.4-1.2,1.4-1,2.3C0.3,17.6,1.1,18.3,2,18.3z M56,43H2c-1.1,0-2,0.8-2,1.9v5.9c0,1,0.9,1.9,2,1.9h54c1.1,0,2-0.8,2-1.9v-5.9
		C58,43.8,57.1,43,56,43z M13.7,22.9c0.7,0,1.3-0.6,1.3-1.2s-0.6-1.2-1.3-1.2H5.6c-0.7,0-1.3,0.6-1.3,1.2s0.6,1.2,1.3,1.2h0.2v15.5
		H5.6c-0.7,0-1.3,0.6-1.3,1.2s0.6,1.2,1.3,1.2h8.1c0.7,0,1.3-0.6,1.3-1.2s-0.6-1.2-1.3-1.2h-0.2V22.9H13.7z M26.6,22.9
		c0.7,0,1.3-0.6,1.3-1.2s-0.6-1.2-1.3-1.2h-8.1c-0.7,0-1.3,0.6-1.3,1.2s0.6,1.2,1.3,1.2h0.2v15.5h-0.2c-0.7,0-1.3,0.6-1.3,1.2
		s0.6,1.2,1.3,1.2h8.1c0.7,0,1.3-0.6,1.3-1.2s-0.6-1.2-1.3-1.2h-0.2V22.9H26.6z M39.5,22.9c0.7,0,1.3-0.6,1.3-1.2s-0.6-1.2-1.3-1.2
		h-8.1c-0.7,0-1.3,0.6-1.3,1.2s0.6,1.2,1.3,1.2h0.2v15.5h-0.2c-0.7,0-1.3,0.6-1.3,1.2s0.6,1.2,1.3,1.2h8.1c0.7,0,1.3-0.6,1.3-1.2
		s-0.6-1.2-1.3-1.2h-0.2V22.9H39.5z M51.3,22.9c0.7,0,1.3-0.6,1.3-1.2s-0.6-1.2-1.3-1.2h-8.1c-0.7,0-1.3,0.6-1.3,1.2
		s0.6,1.2,1.3,1.2h0.2v15.5h-0.2c-0.7,0-1.3,0.6-1.3,1.2s0.6,1.2,1.3,1.2h8.1c0.7,0,1.3-0.6,1.3-1.2s-0.6-1.2-1.3-1.2h-0.2V22.9
		H51.3z"/>
</g>
</svg>
