<?xml version="1.0" encoding="utf-8"?>
<!-- Generator: Adobe Illustrator 23.0.2, SVG Export Plug-In . SVG Version: 6.00 Build 0)  -->
<svg version="1.1" id="Слой_1" xmlns="http://www.w3.org/2000/svg" xmlns:xlink="http://www.w3.org/1999/xlink" x="0px" y="0px"
	 viewBox="0 0 34.3 22.5" style="enable-background:new 0 0 34.3 22.5;" xml:space="preserve">
<style type="text/css">
	.st0{fill:#F9F9F9;}
	.st1{fill:#FFC601;}
	.st2{fill:none;stroke:#303030;stroke-width:0.8;stroke-linecap:round;stroke-linejoin:round;stroke-miterlimit:10;}
	.st3{fill:none;stroke:#303030;stroke-width:0.5;stroke-linecap:round;stroke-linejoin:round;stroke-miterlimit:10;}
	.st4{fill:#303030;}
	.st5{fill:#F43735;}
</style>
<g id="Icons">
	<path class="st0" d="M31.7,22.1H2.6c-1.2,0-2.2-1-2.2-2.2V2.6c0-1.2,1-2.2,2.2-2.2h29.1c1.2,0,2.2,1,2.2,2.2v17.3
		C33.9,21.1,32.9,22.1,31.7,22.1z"/>
	<path class="st1" d="M8.7,3.8H4.7c-0.5,0-1,0.4-1,1v3.1c0,0.5,0.4,1,1,1h3.9c0.5,0,1-0.4,1-1V4.8C9.7,4.2,9.2,3.8,8.7,3.8z"/>
	<path class="st2" d="M31.7,22.1H2.6c-1.2,0-2.2-1-2.2-2.2V2.6c0-1.2,1-2.2,2.2-2.2h29.1c1.2,0,2.2,1,2.2,2.2v17.3
		C33.9,21.1,32.9,22.1,31.7,22.1z"/>
	<path class="st3" d="M8.7,3.8H4.7c-0.5,0-1,0.4-1,1v3.1c0,0.5,0.4,1,1,1h3.9c0.5,0,1-0.4,1-1V4.8C9.7,4.2,9.2,3.8,8.7,3.8z"/>
	<path class="st3" d="M5.9,3.8C5.7,4,5.6,4.4,5.5,4.8c-0.1,0.4-0.1,0.9,0,1.5c0.1,0.5,0.2,1,0.5,1.5"/>
	<line class="st3" x1="3.8" y1="7.8" x2="9.7" y2="7.8"/>
	<line class="st3" x1="5.5" y1="4.8" x2="3.7" y2="4.8"/>
	<line class="st3" x1="5.5" y1="6.3" x2="3.7" y2="6.3"/>
	<path class="st3" d="M7.7,3.8C7.8,4,7.9,4.4,8,4.8c0.1,0.4,0.1,0.9,0,1.5c-0.1,0.5-0.2,1-0.5,1.5"/>
	<line class="st3" x1="9.7" y1="4.8" x2="8" y2="4.8"/>
	<line class="st3" x1="9.7" y1="6.3" x2="8" y2="6.3"/>
	<line class="st2" x1="19.7" y1="4.3" x2="30.1" y2="4.3"/>
	<line class="st2" x1="3.6" y1="16" x2="15.2" y2="16"/>
	<path class="st4" d="M3.2,11.7c0-0.1,0-0.1,0-0.2c0-0.1,0.1-0.1,0.1-0.1c0.1,0,0.1-0.1,0.2-0.1c0.1,0,0.1,0,0.2,0
		c0.1,0,0.1,0,0.2,0c0.1,0,0.1,0,0.2,0.1c0.1,0,0.1,0.1,0.1,0.1c0,0.1,0,0.1,0,0.2v1.2c0,0.1,0,0.1,0,0.2c0,0.1-0.1,0.1-0.1,0.1
		c-0.1,0-0.1,0.1-0.2,0.1c-0.1,0-0.1,0-0.2,0c-0.1,0-0.1,0-0.2,0c-0.1,0-0.1,0-0.2-0.1c-0.1,0-0.1-0.1-0.1-0.1c0-0.1,0-0.1,0-0.2
		V11.7z M3.6,12.8c0,0,0,0.1,0.1,0.1c0,0,0.1,0,0.1,0c0.1,0,0.1,0,0.1,0c0,0,0.1-0.1,0.1-0.1v-1.2c0,0,0-0.1-0.1-0.1
		c0,0-0.1,0-0.1,0c-0.1,0-0.1,0-0.1,0c0,0-0.1,0.1-0.1,0.1V12.8z"/>
	<path class="st4" d="M4.6,11.7c0-0.1,0-0.1,0-0.2c0-0.1,0.1-0.1,0.1-0.1c0.1,0,0.1-0.1,0.2-0.1c0.1,0,0.1,0,0.2,0
		c0.1,0,0.1,0,0.2,0c0.1,0,0.1,0,0.2,0.1c0.1,0,0.1,0.1,0.1,0.1c0,0.1,0,0.1,0,0.2v1.2c0,0.1,0,0.1,0,0.2c0,0.1-0.1,0.1-0.1,0.1
		c-0.1,0-0.1,0.1-0.2,0.1c-0.1,0-0.1,0-0.2,0c-0.1,0-0.1,0-0.2,0c-0.1,0-0.1,0-0.2-0.1c-0.1,0-0.1-0.1-0.1-0.1c0-0.1,0-0.1,0-0.2
		V11.7z M5,12.8c0,0,0,0.1,0.1,0.1c0,0,0.1,0,0.1,0c0.1,0,0.1,0,0.1,0c0,0,0.1-0.1,0.1-0.1v-1.2c0,0,0-0.1-0.1-0.1c0,0-0.1,0-0.1,0
		c-0.1,0-0.1,0-0.1,0c0,0-0.1,0.1-0.1,0.1V12.8z"/>
	<path class="st4" d="M6,11.7c0-0.1,0-0.1,0-0.2c0-0.1,0.1-0.1,0.1-0.1c0.1,0,0.1-0.1,0.2-0.1c0.1,0,0.1,0,0.2,0c0.1,0,0.1,0,0.2,0
		c0.1,0,0.1,0,0.2,0.1C7,11.4,7,11.4,7,11.5c0,0.1,0,0.1,0,0.2v1.2c0,0.1,0,0.1,0,0.2c0,0.1-0.1,0.1-0.1,0.1c-0.1,0-0.1,0.1-0.2,0.1
		c-0.1,0-0.1,0-0.2,0c-0.1,0-0.1,0-0.2,0c-0.1,0-0.1,0-0.2-0.1C6.1,13.1,6,13.1,6,13c0-0.1,0-0.1,0-0.2V11.7z M6.3,12.8
		c0,0,0,0.1,0.1,0.1c0,0,0.1,0,0.1,0c0.1,0,0.1,0,0.1,0c0,0,0.1-0.1,0.1-0.1v-1.2c0,0,0-0.1-0.1-0.1c0,0-0.1,0-0.1,0
		c-0.1,0-0.1,0-0.1,0c0,0-0.1,0.1-0.1,0.1V12.8z"/>
	<path class="st4" d="M7.3,11.7c0-0.1,0-0.1,0-0.2c0-0.1,0.1-0.1,0.1-0.1c0.1,0,0.1-0.1,0.2-0.1c0.1,0,0.1,0,0.2,0
		c0.1,0,0.1,0,0.2,0c0.1,0,0.1,0,0.2,0.1c0.1,0,0.1,0.1,0.1,0.1c0,0.1,0,0.1,0,0.2v1.2c0,0.1,0,0.1,0,0.2c0,0.1-0.1,0.1-0.1,0.1
		c-0.1,0-0.1,0.1-0.2,0.1c-0.1,0-0.1,0-0.2,0c-0.1,0-0.1,0-0.2,0c-0.1,0-0.1,0-0.2-0.1c-0.1,0-0.1-0.1-0.1-0.1c0-0.1,0-0.1,0-0.2
		V11.7z M7.7,12.8c0,0,0,0.1,0.1,0.1c0,0,0.1,0,0.1,0C8,13,8,13,8,12.9c0,0,0.1-0.1,0.1-0.1v-1.2c0,0,0-0.1-0.1-0.1c0,0-0.1,0-0.1,0
		c-0.1,0-0.1,0-0.1,0c0,0-0.1,0.1-0.1,0.1V12.8z"/>
	<path class="st4" d="M10.1,11.7c0-0.1,0-0.1,0-0.2c0-0.1,0.1-0.1,0.1-0.1c0.1,0,0.1-0.1,0.2-0.1c0.1,0,0.1,0,0.2,0
		c0.1,0,0.1,0,0.2,0c0.1,0,0.1,0,0.2,0.1c0.1,0,0.1,0.1,0.1,0.1c0,0.1,0,0.1,0,0.2v1.2c0,0.1,0,0.1,0,0.2c0,0.1-0.1,0.1-0.1,0.1
		c-0.1,0-0.1,0.1-0.2,0.1c-0.1,0-0.1,0-0.2,0c-0.1,0-0.1,0-0.2,0c-0.1,0-0.1,0-0.2-0.1c-0.1,0-0.1-0.1-0.1-0.1c0-0.1,0-0.1,0-0.2
		V11.7z M10.5,12.8c0,0,0,0.1,0.1,0.1c0,0,0.1,0,0.1,0c0.1,0,0.1,0,0.1,0c0,0,0.1-0.1,0.1-0.1v-1.2c0,0,0-0.1-0.1-0.1
		c0,0-0.1,0-0.1,0c-0.1,0-0.1,0-0.1,0c0,0-0.1,0.1-0.1,0.1V12.8z"/>
	<path class="st4" d="M11.5,11.7c0-0.1,0-0.1,0-0.2c0-0.1,0.1-0.1,0.1-0.1c0.1,0,0.1-0.1,0.2-0.1c0.1,0,0.1,0,0.2,0
		c0.1,0,0.1,0,0.2,0c0.1,0,0.1,0,0.2,0.1c0.1,0,0.1,0.1,0.1,0.1c0,0.1,0,0.1,0,0.2v1.2c0,0.1,0,0.1,0,0.2c0,0.1-0.1,0.1-0.1,0.1
		c-0.1,0-0.1,0.1-0.2,0.1c-0.1,0-0.1,0-0.2,0c-0.1,0-0.1,0-0.2,0c-0.1,0-0.1,0-0.2-0.1c-0.1,0-0.1-0.1-0.1-0.1s0-0.1,0-0.2V11.7z
		 M11.9,12.8c0,0,0,0.1,0.1,0.1c0,0,0.1,0,0.1,0c0.1,0,0.1,0,0.1,0c0,0,0.1-0.1,0.1-0.1v-1.2c0,0,0-0.1-0.1-0.1c0,0-0.1,0-0.1,0
		c-0.1,0-0.1,0-0.1,0c0,0-0.1,0.1-0.1,0.1V12.8z"/>
	<path class="st4" d="M12.9,11.7c0-0.1,0-0.1,0-0.2c0-0.1,0.1-0.1,0.1-0.1c0.1,0,0.1-0.1,0.2-0.1c0.1,0,0.1,0,0.2,0
		c0.1,0,0.1,0,0.2,0c0.1,0,0.1,0,0.2,0.1c0.1,0,0.1,0.1,0.1,0.1c0,0.1,0,0.1,0,0.2v1.2c0,0.1,0,0.1,0,0.2c0,0.1-0.1,0.1-0.1,0.1
		c-0.1,0-0.1,0.1-0.2,0.1c-0.1,0-0.1,0-0.2,0c-0.1,0-0.1,0-0.2,0c-0.1,0-0.1,0-0.2-0.1c-0.1,0-0.1-0.1-0.1-0.1c0-0.1,0-0.1,0-0.2
		V11.7z M13.3,12.8c0,0,0,0.1,0.1,0.1c0,0,0.1,0,0.1,0c0.1,0,0.1,0,0.1,0c0,0,0.1-0.1,0.1-0.1v-1.2c0,0,0-0.1-0.1-0.1
		c0,0-0.1,0-0.1,0c-0.1,0-0.1,0-0.1,0c0,0-0.1,0.1-0.1,0.1V12.8z"/>
	<path class="st4" d="M14.3,11.7c0-0.1,0-0.1,0-0.2c0-0.1,0.1-0.1,0.1-0.1c0.1,0,0.1-0.1,0.2-0.1c0.1,0,0.1,0,0.2,0
		c0.1,0,0.1,0,0.2,0c0.1,0,0.1,0,0.2,0.1c0.1,0,0.1,0.1,0.1,0.1c0,0.1,0,0.1,0,0.2v1.2c0,0.1,0,0.1,0,0.2c0,0.1-0.1,0.1-0.1,0.1
		c-0.1,0-0.1,0.1-0.2,0.1c-0.1,0-0.1,0-0.2,0c-0.1,0-0.1,0-0.2,0c-0.1,0-0.1,0-0.2-0.1c-0.1,0-0.1-0.1-0.1-0.1c0-0.1,0-0.1,0-0.2
		V11.7z M14.6,12.8c0,0,0,0.1,0.1,0.1c0,0,0.1,0,0.1,0c0.1,0,0.1,0,0.1,0c0,0,0.1-0.1,0.1-0.1v-1.2c0,0,0-0.1-0.1-0.1
		c0,0-0.1,0-0.1,0c-0.1,0-0.1,0-0.1,0c0,0-0.1,0.1-0.1,0.1V12.8z"/>
	<path class="st4" d="M17,11.7c0-0.1,0-0.1,0-0.2c0-0.1,0.1-0.1,0.1-0.1c0.1,0,0.1-0.1,0.2-0.1c0.1,0,0.1,0,0.2,0c0.1,0,0.1,0,0.2,0
		c0.1,0,0.1,0,0.2,0.1c0.1,0,0.1,0.1,0.1,0.1c0,0.1,0,0.1,0,0.2v1.2c0,0.1,0,0.1,0,0.2c0,0.1-0.1,0.1-0.1,0.1
		c-0.1,0-0.1,0.1-0.2,0.1c-0.1,0-0.1,0-0.2,0c-0.1,0-0.1,0-0.2,0c-0.1,0-0.1,0-0.2-0.1c-0.1,0-0.1-0.1-0.1-0.1c0-0.1,0-0.1,0-0.2
		V11.7z M17.4,12.8c0,0,0,0.1,0.1,0.1c0,0,0.1,0,0.1,0c0.1,0,0.1,0,0.1,0c0,0,0.1-0.1,0.1-0.1v-1.2c0,0,0-0.1-0.1-0.1
		c0,0-0.1,0-0.1,0c-0.1,0-0.1,0-0.1,0c0,0-0.1,0.1-0.1,0.1V12.8z"/>
	<path class="st4" d="M18.4,11.7c0-0.1,0-0.1,0-0.2c0-0.1,0.1-0.1,0.1-0.1c0.1,0,0.1-0.1,0.2-0.1c0.1,0,0.1,0,0.2,0
		c0.1,0,0.1,0,0.2,0c0.1,0,0.1,0,0.2,0.1c0.1,0,0.1,0.1,0.1,0.1c0,0.1,0,0.1,0,0.2v1.2c0,0.1,0,0.1,0,0.2c0,0.1-0.1,0.1-0.1,0.1
		c-0.1,0-0.1,0.1-0.2,0.1c-0.1,0-0.1,0-0.2,0c-0.1,0-0.1,0-0.2,0c-0.1,0-0.1,0-0.2-0.1c-0.1,0-0.1-0.1-0.1-0.1c0-0.1,0-0.1,0-0.2
		V11.7z M18.8,12.8c0,0,0,0.1,0.1,0.1c0,0,0.1,0,0.1,0c0.1,0,0.1,0,0.1,0c0,0,0.1-0.1,0.1-0.1v-1.2c0,0,0-0.1-0.1-0.1
		c0,0-0.1,0-0.1,0c-0.1,0-0.1,0-0.1,0c0,0-0.1,0.1-0.1,0.1V12.8z"/>
	<path class="st4" d="M19.8,11.7c0-0.1,0-0.1,0-0.2c0-0.1,0.1-0.1,0.1-0.1c0.1,0,0.1-0.1,0.2-0.1c0.1,0,0.1,0,0.2,0
		c0.1,0,0.1,0,0.2,0c0.1,0,0.1,0,0.2,0.1c0.1,0,0.1,0.1,0.1,0.1c0,0.1,0,0.1,0,0.2v1.2c0,0.1,0,0.1,0,0.2c0,0.1-0.1,0.1-0.1,0.1
		c-0.1,0-0.1,0.1-0.2,0.1c-0.1,0-0.1,0-0.2,0c-0.1,0-0.1,0-0.2,0c-0.1,0-0.1,0-0.2-0.1c-0.1,0-0.1-0.1-0.1-0.1c0-0.1,0-0.1,0-0.2
		V11.7z M20.2,12.8c0,0,0,0.1,0.1,0.1c0,0,0.1,0,0.1,0c0.1,0,0.1,0,0.1,0c0,0,0.1-0.1,0.1-0.1v-1.2c0,0,0-0.1-0.1-0.1
		c0,0-0.1,0-0.1,0c-0.1,0-0.1,0-0.1,0c0,0-0.1,0.1-0.1,0.1V12.8z"/>
	<path class="st4" d="M21.2,11.7c0-0.1,0-0.1,0-0.2c0-0.1,0.1-0.1,0.1-0.1c0.1,0,0.1-0.1,0.2-0.1c0.1,0,0.1,0,0.2,0
		c0.1,0,0.1,0,0.2,0c0.1,0,0.1,0,0.2,0.1c0.1,0,0.1,0.1,0.1,0.1c0,0.1,0,0.1,0,0.2v1.2c0,0.1,0,0.1,0,0.2c0,0.1-0.1,0.1-0.1,0.1
		c-0.1,0-0.1,0.1-0.2,0.1c-0.1,0-0.1,0-0.2,0c-0.1,0-0.1,0-0.2,0c-0.1,0-0.1,0-0.2-0.1c-0.1,0-0.1-0.1-0.1-0.1c0-0.1,0-0.1,0-0.2
		V11.7z M21.6,12.8c0,0,0,0.1,0.1,0.1c0,0,0.1,0,0.1,0c0.1,0,0.1,0,0.1,0c0,0,0.1-0.1,0.1-0.1v-1.2c0,0,0-0.1-0.1-0.1
		c0,0-0.1,0-0.1,0c-0.1,0-0.1,0-0.1,0c0,0-0.1,0.1-0.1,0.1V12.8z"/>
	<path class="st4" d="M24,11.7c0-0.1,0-0.1,0-0.2c0-0.1,0.1-0.1,0.1-0.1c0.1,0,0.1-0.1,0.2-0.1c0.1,0,0.1,0,0.2,0c0.1,0,0.1,0,0.2,0
		c0.1,0,0.1,0,0.2,0.1c0.1,0,0.1,0.1,0.1,0.1c0,0.1,0,0.1,0,0.2v1.2c0,0.1,0,0.1,0,0.2c0,0.1-0.1,0.1-0.1,0.1
		c-0.1,0-0.1,0.1-0.2,0.1c-0.1,0-0.1,0-0.2,0c-0.1,0-0.1,0-0.2,0c-0.1,0-0.1,0-0.2-0.1c-0.1,0-0.1-0.1-0.1-0.1c0-0.1,0-0.1,0-0.2
		V11.7z M24.3,12.8c0,0,0,0.1,0.1,0.1c0,0,0.1,0,0.1,0c0.1,0,0.1,0,0.1,0c0,0,0.1-0.1,0.1-0.1v-1.2c0,0,0-0.1-0.1-0.1
		c0,0-0.1,0-0.1,0c-0.1,0-0.1,0-0.1,0c0,0-0.1,0.1-0.1,0.1V12.8z"/>
	<path class="st4" d="M25.3,11.7c0-0.1,0-0.1,0-0.2c0-0.1,0.1-0.1,0.1-0.1c0.1,0,0.1-0.1,0.2-0.1c0.1,0,0.1,0,0.2,0
		c0.1,0,0.1,0,0.2,0c0.1,0,0.1,0,0.2,0.1c0.1,0,0.1,0.1,0.1,0.1c0,0.1,0,0.1,0,0.2v1.2c0,0.1,0,0.1,0,0.2c0,0.1-0.1,0.1-0.1,0.1
		c-0.1,0-0.1,0.1-0.2,0.1c-0.1,0-0.1,0-0.2,0c-0.1,0-0.1,0-0.2,0c-0.1,0-0.1,0-0.2-0.1c-0.1,0-0.1-0.1-0.1-0.1c0-0.1,0-0.1,0-0.2
		V11.7z M25.7,12.8c0,0,0,0.1,0.1,0.1c0,0,0.1,0,0.1,0c0.1,0,0.1,0,0.1,0c0,0,0.1-0.1,0.1-0.1v-1.2c0,0,0-0.1-0.1-0.1
		c0,0-0.1,0-0.1,0c-0.1,0-0.1,0-0.1,0c0,0-0.1,0.1-0.1,0.1V12.8z"/>
	<path class="st4" d="M26.7,11.7c0-0.1,0-0.1,0-0.2c0-0.1,0.1-0.1,0.1-0.1c0.1,0,0.1-0.1,0.2-0.1c0.1,0,0.1,0,0.2,0
		c0.1,0,0.1,0,0.2,0c0.1,0,0.1,0,0.2,0.1c0.1,0,0.1,0.1,0.1,0.1c0,0.1,0,0.1,0,0.2v1.2c0,0.1,0,0.1,0,0.2c0,0.1-0.1,0.1-0.1,0.1
		c-0.1,0-0.1,0.1-0.2,0.1c-0.1,0-0.1,0-0.2,0c-0.1,0-0.1,0-0.2,0c-0.1,0-0.1,0-0.2-0.1c-0.1,0-0.1-0.1-0.1-0.1c0-0.1,0-0.1,0-0.2
		V11.7z M27.1,12.8c0,0,0,0.1,0.1,0.1c0,0,0.1,0,0.1,0c0.1,0,0.1,0,0.1,0c0,0,0.1-0.1,0.1-0.1v-1.2c0,0,0-0.1-0.1-0.1
		c0,0-0.1,0-0.1,0c-0.1,0-0.1,0-0.1,0c0,0-0.1,0.1-0.1,0.1V12.8z"/>
	<path class="st4" d="M28.1,11.7c0-0.1,0-0.1,0-0.2c0-0.1,0.1-0.1,0.1-0.1c0.1,0,0.1-0.1,0.2-0.1c0.1,0,0.1,0,0.2,0
		c0.1,0,0.1,0,0.2,0c0.1,0,0.1,0,0.2,0.1c0.1,0,0.1,0.1,0.1,0.1c0,0.1,0,0.1,0,0.2v1.2c0,0.1,0,0.1,0,0.2c0,0.1-0.1,0.1-0.1,0.1
		c-0.1,0-0.1,0.1-0.2,0.1c-0.1,0-0.1,0-0.2,0c-0.1,0-0.1,0-0.2,0c-0.1,0-0.1,0-0.2-0.1c-0.1,0-0.1-0.1-0.1-0.1s0-0.1,0-0.2V11.7z
		 M28.5,12.8c0,0,0,0.1,0.1,0.1c0,0,0.1,0,0.1,0c0.1,0,0.1,0,0.1,0c0,0,0.1-0.1,0.1-0.1v-1.2c0,0,0-0.1-0.1-0.1c0,0-0.1,0-0.1,0
		c-0.1,0-0.1,0-0.1,0c0,0-0.1,0.1-0.1,0.1V12.8z"/>
	<g>
		<path class="st1" d="M30.9,17.6c0,1.4-1.1,2.4-2.4,2.4c-0.7,0-1.3-0.3-1.8-0.8c-0.2-0.2-1.3,0.2-1.4,0c-0.2-0.3-0.6-2.2-0.6-2.6
			c0-0.5,0.6-0.9,1.2-1.1c0.2,0,0.7,0.3,0.8,0.2c0.4-0.5,1.1-0.7,1.8-0.7C29.8,15.2,30.9,16.3,30.9,17.6z"/>
		<path class="st4" d="M28.4,15c-0.7,0-1.3,0.3-1.8,0.7c-0.4-0.3-0.9-0.5-1.5-0.5c-1.3,0-2.4,1.1-2.4,2.4s1.1,2.4,2.4,2.4
			c0.5,0,1-0.2,1.5-0.5c0.5,0.4,1.1,0.7,1.8,0.7c1.5,0,2.6-1.2,2.6-2.6C31,16.2,29.8,15,28.4,15z M28.4,19.9c-0.5,0-1-0.2-1.4-0.5
			l0,0H26v-0.4h1.2c0.1-0.1,0.1-0.2,0.2-0.3h-1.7v-0.4h1.9c0-0.1,0-0.2,0-0.3h-2.1v-0.4h2.1c0-0.1,0-0.2-0.1-0.3h-1.9v-0.4h1.7
			c0-0.1-0.1-0.2-0.2-0.3H26v-0.4h0.8c0,0,0.1,0,0.1,0c0.4-0.4,0.9-0.6,1.5-0.6c1.2,0,2.2,1,2.2,2.2C30.6,18.9,29.6,19.9,28.4,19.9z
			"/>
		<circle class="st5" cx="25.2" cy="17.6" r="2"/>
	</g>
</g>
</svg>
