<?xml version="1.0" encoding="utf-8"?>
<!-- Generator: Adobe Illustrator 23.0.2, SVG Export Plug-In . SVG Version: 6.00 Build 0)  -->
<svg version="1.1" id="Слой_1" xmlns="http://www.w3.org/2000/svg" xmlns:xlink="http://www.w3.org/1999/xlink" x="0px" y="0px"
	 viewBox="0 0 1741.6 1717.1" style="enable-background:new 0 0 1741.6 1717.1;" xml:space="preserve">
<style type="text/css">
	.st0{fill:#F58A1F;}
</style>
<g>
	<path class="st0" d="M1712.2,621c-18.1-67.7-87.7-108-155.4-89.9s-108,87.7-89.9,155.4c13.9,51.8,20.9,105.6,20.9,159.9
		c0,340.2-276.7,616.9-616.9,616.9c-32.2,0-63.9-2.5-94.8-7.3c143.4-32.8,250.5-160.9,250.5-314.2c0-178.1-144.4-322.6-322.6-322.6
		c-178.1,0-322.6,144.4-322.6,322.6c0,34.7,5.6,68,15.7,99.2c-89.3-107-143.2-244.7-143.2-394.7c0-279.9,188.7-525.2,458.9-596.5
		c67.8-17.9,108.2-87.4,90.3-155.2C785.2,26.8,715.7-13.7,647.9,4.3C266.4,105.1,0,451.3,0,846.3c0,480.2,390.7,870.8,870.8,870.8
		c480.2,0,870.8-390.6,870.8-870.8C1741.7,770.1,1731.8,694.3,1712.2,621z"/>
	<ellipse class="st0" cx="1205.5" cy="274.2" rx="210.3" ry="210.3"/>
</g>
</svg>
