<?xml version="1.0" encoding="utf-8"?>
<!-- Generator: Adobe Illustrator 23.0.2, SVG Export Plug-In . SVG Version: 6.00 Build 0)  -->
<svg version="1.1" id="Слой_1" xmlns="http://www.w3.org/2000/svg" xmlns:xlink="http://www.w3.org/1999/xlink" x="0px" y="0px"
	 viewBox="0 0 50.9 49.9" style="enable-background:new 0 0 50.9 49.9;" xml:space="preserve">
<style type="text/css">
	.st0{filter:url(#Adobe_OpacityMaskFilter);}
	.st1{fill-rule:evenodd;clip-rule:evenodd;fill:#FFFFFF;}
	.st2{mask:url(#get-qiwi-b_1_);fill-rule:evenodd;clip-rule:evenodd;fill:#FF8C00;}
</style>
<g transform="translate(18 9)">
	<defs>
		<filter id="Adobe_OpacityMaskFilter" filterUnits="userSpaceOnUse" x="-18" y="-9" width="50.9" height="49.9">
			<feColorMatrix  type="matrix" values="1 0 0 0 0  0 1 0 0 0  0 0 1 0 0  0 0 0 1 0"/>
		</filter>
	</defs>
	<mask maskUnits="userSpaceOnUse" x="-18" y="-9" width="50.9" height="49.9" id="get-qiwi-b_1_">
		<g class="st0">
			<polygon id="get-qiwi-a_1_" class="st1" points="-18,-9 32.9,-9 32.9,40.9 -18,40.9 			"/>
		</g>
	</mask>
	<path class="st2" d="M17.2,34.8c4.5,0,9.4,1.5,14.7,6c0.5,0.5,1.3-0.1,0.8-0.7c-5.3-6.3-10.2-7.5-15.1-8.6c-6-1.2-9-4.4-11.2-7.9
		c-0.4-0.7-0.6-0.6-0.7,0.3c0,1.1,0,2.5,0.3,4c-0.2,0-0.5,0-0.7,0c-8.5,0-15.5-6.6-15.5-14.7S-3.1-1.5,5.4-1.5
		c8.5,0,15.5,6.6,15.5,14.7c0,0.6,0,1.1-0.1,1.7c-1.1-0.2-3.4-0.2-4.9-0.1c-0.6,0-0.5,0.3-0.1,0.4c5.1,0.9,8.6,3.9,9.4,9.3
		c0,0.1,0.2,0.2,0.3,0.1c2.1-3.3,3.3-7.2,3.3-11.4C28.8,0.9,18.3-9,5.4-9C-7.5-9-18,0.9-18,13.2S-7.5,35.4,5.4,35.4
		C8.8,35.4,12.2,34.8,17.2,34.8 M19,26.7c1,0.8,1.4,1.8,0.8,2.5c-0.3,0.4-0.8,0.6-1.4,0.6c-0.6,0-1.2-0.2-1.6-0.5
		c-0.9-0.8-1.2-2.1-0.6-2.8c0.2-0.3,0.6-0.4,1.1-0.4C17.9,26.1,18.5,26.3,19,26.7 M23.8,24.6c0.2,1-0.2,1.4-0.5,1.4
		c-0.4,0-0.8-0.4-1.3-1.2c-0.5-0.8-0.7-1.6-0.5-2.1c0.2-0.3,0.5-0.4,1-0.3C23.3,22.7,23.7,24,23.8,24.6"/>
</g>
</svg>
