<?xml version="1.0" encoding="utf-8"?>
<!-- Generator: Adobe Illustrator 23.0.2, SVG Export Plug-In . SVG Version: 6.00 Build 0)  -->
<svg version="1.1" id="Слой_1" xmlns="http://www.w3.org/2000/svg" xmlns:xlink="http://www.w3.org/1999/xlink" x="0px" y="0px"
	 viewBox="0 0 38 47" style="enable-background:new 0 0 38 47;" xml:space="preserve">
<style type="text/css">
	.st0{fill-rule:evenodd;clip-rule:evenodd;fill:#F7C700;}
	.st1{fill-rule:evenodd;clip-rule:evenodd;fill:#D3AC00;}
	.st2{fill-rule:evenodd;clip-rule:evenodd;}
</style>
<g transform="translate(25)">
	<path class="st0" d="M-22.6,21.3l5.9-2.2H13v28h-34c-2.2,0-4-1.8-4-4V29.1L-22.6,21.3z"/>
	<path class="st0" d="M-22.9,17.5L1.1,0v30.2L-25,33.6v-12C-25,20-24.2,18.5-22.9,17.5z"/>
	<polygon class="st1" points="1.1,19 1.1,30.2 -21.4,44.8 7.1,34.7 7.1,19 	"/>
	<path class="st2" d="M-4.8,22.6c1.3-0.6,2.4-2,2.4-3.3s-1.1-1.8-2.4-1.2s-2.4,2-2.4,3.3C-7.2,22.6-6.1,23.2-4.8,22.6z"/>
</g>
</svg>
