<?xml version="1.0" encoding="utf-8"?>
<!-- Generator: Adobe Illustrator 23.0.2, SVG Export Plug-In . SVG Version: 6.00 Build 0)  -->
<svg version="1.1" id="Слой_1" xmlns="http://www.w3.org/2000/svg" xmlns:xlink="http://www.w3.org/1999/xlink" x="0px" y="0px"
	 viewBox="0 0 36 36" style="enable-background:new 0 0 36 36;" xml:space="preserve">
<style type="text/css">
	.st0{fill-rule:evenodd;clip-rule:evenodd;fill:#F2F8FC;}
	.st1{filter:url(#Adobe_OpacityMaskFilter);}
	.st2{fill-rule:evenodd;clip-rule:evenodd;fill:#FFFFFF;}
	.st3{mask:url(#mask-2_1_);}
	.st4{filter:url(#Adobe_OpacityMaskFilter_1_);}
	.st5{mask:url(#mask-4_1_);fill:#EF3E58;}
	.st6{filter:url(#Adobe_OpacityMaskFilter_2_);}
	.st7{mask:url(#mask-6_1_);}
	.st8{filter:url(#Adobe_OpacityMaskFilter_3_);}
	.st9{mask:url(#mask-8_1_);fill:#EF3E58;}
	.st10{filter:url(#Adobe_OpacityMaskFilter_4_);}
	.st11{mask:url(#mask-10_1_);}
	.st12{filter:url(#Adobe_OpacityMaskFilter_5_);}
	.st13{mask:url(#mask-12_1_);fill:#EF3E58;}
	.st14{filter:url(#Adobe_OpacityMaskFilter_6_);}
	.st15{mask:url(#mask-14_1_);}
	.st16{filter:url(#Adobe_OpacityMaskFilter_7_);}
	.st17{mask:url(#mask-16_1_);fill:#EF3E58;}
	.st18{filter:url(#Adobe_OpacityMaskFilter_8_);}
	.st19{mask:url(#mask-18_1_);}
	.st20{filter:url(#Adobe_OpacityMaskFilter_9_);}
	.st21{mask:url(#mask-20_1_);fill:#EF3E58;}
	.st22{filter:url(#Adobe_OpacityMaskFilter_10_);}
	.st23{mask:url(#mask-22_1_);}
	.st24{filter:url(#Adobe_OpacityMaskFilter_11_);}
	.st25{mask:url(#mask-24_1_);fill:#EF3E58;}
	.st26{filter:url(#Adobe_OpacityMaskFilter_12_);}
	.st27{mask:url(#mask-26_1_);}
	.st28{filter:url(#Adobe_OpacityMaskFilter_13_);}
	.st29{mask:url(#mask-28_1_);fill:#0F67B1;}
	.st30{filter:url(#Adobe_OpacityMaskFilter_14_);}
	.st31{mask:url(#mask-30_1_);}
	.st32{filter:url(#Adobe_OpacityMaskFilter_15_);}
	.st33{mask:url(#mask-32_1_);fill:#0F67B1;}
	.st34{filter:url(#Adobe_OpacityMaskFilter_16_);}
	.st35{mask:url(#mask-34_1_);}
	.st36{filter:url(#Adobe_OpacityMaskFilter_17_);}
	.st37{mask:url(#mask-36_1_);fill:#0F67B1;}
	.st38{fill-rule:evenodd;clip-rule:evenodd;fill:url(#Shape_1_);}
</style>
<title>gosuslugi_logo</title>
<desc>Created with Sketch.</desc>
<g id="Page-1">
	<g id="gosuslugi_logo">
		<circle id="Oval" class="st0" cx="18" cy="18" r="18"/>
		<g id="Clipped" transform="translate(13.197183, 18.169014)">
			<g id="SVGID_1_">
			</g>
			<defs>
				<filter id="Adobe_OpacityMaskFilter" filterUnits="userSpaceOnUse" x="-0.5" y="-0.5" width="3.9" height="4.2">
					<feColorMatrix  type="matrix" values="1 0 0 0 0  0 1 0 0 0  0 0 1 0 0  0 0 0 1 0"/>
				</filter>
			</defs>
			<mask maskUnits="userSpaceOnUse" x="-0.5" y="-0.5" width="3.9" height="4.2" id="mask-2_1_">
				<g class="st1">
					<path id="path-1_1_" class="st2" d="M2.8,0.1H0.6c0,0,0,0,0,0C0.5,1.1,0.3,2.2,0,3.1c0,0,0,0,0,0c0,0,0,0,0,0h0.8c0,0,0,0,0,0
						c0.2-0.7,0.4-1.6,0.4-2.3H2v2.3c0,0,0,0,0,0h0.7c0,0,0,0,0,0L2.8,0.1C2.9,0.1,2.8,0.1,2.8,0.1"/>
				</g>
			</mask>
			<g class="st3">
				<g transform="translate(-6.197183, -12.169014)">
					<g id="SVGID_3_">
					</g>
					<defs>
						<filter id="Adobe_OpacityMaskFilter_1_" filterUnits="userSpaceOnUse" x="5.7" y="11.7" width="3.9" height="4.2">
							<feColorMatrix  type="matrix" values="1 0 0 0 0  0 1 0 0 0  0 0 1 0 0  0 0 0 1 0"/>
						</filter>
					</defs>
					<mask maskUnits="userSpaceOnUse" x="5.7" y="11.7" width="3.9" height="4.2" id="mask-4_1_">
						<g class="st4">
							<rect id="path-3_1_" x="0" class="st2" width="21.9" height="24"/>
						</g>
					</mask>
					<rect id="Rectangle-path" x="5.7" y="11.7" class="st5" width="3.9" height="4.2"/>
				</g>
			</g>
		</g>
		<g transform="translate(22.661972, 18.169014)">
			<g id="SVGID_5_">
			</g>
			<defs>
				<filter id="Adobe_OpacityMaskFilter_2_" filterUnits="userSpaceOnUse" x="-0.5" y="-0.5" width="3.8" height="4.3">
					<feColorMatrix  type="matrix" values="1 0 0 0 0  0 1 0 0 0  0 0 1 0 0  0 0 0 1 0"/>
				</filter>
			</defs>
			<mask maskUnits="userSpaceOnUse" x="-0.5" y="-0.5" width="3.8" height="4.3" id="mask-6_1_">
				<g class="st6">
					<path id="path-5_1_" class="st2" d="M2.7,0.1H2c0,0,0,0,0,0v2.3c-0.2,0-0.3,0.1-0.5,0.1C1,2.5,0.8,2.3,0.8,1.7V0.1c0,0,0,0,0,0
						H0.1c0,0,0,0,0,0v1.7c0,1,0.3,1.4,1.2,1.4c0.5,0,1.1-0.1,1.4-0.3c0,0,0,0,0,0L2.7,0.1C2.7,0.1,2.7,0.1,2.7,0.1"/>
				</g>
			</mask>
			<g class="st7">
				<g transform="translate(-15.661972, -12.169014)">
					<g id="SVGID_7_">
					</g>
					<defs>
						<filter id="Adobe_OpacityMaskFilter_3_" filterUnits="userSpaceOnUse" x="15.1" y="11.7" width="3.8" height="4.3">
							<feColorMatrix  type="matrix" values="1 0 0 0 0  0 1 0 0 0  0 0 1 0 0  0 0 0 1 0"/>
						</filter>
					</defs>
					<mask maskUnits="userSpaceOnUse" x="15.1" y="11.7" width="3.8" height="4.3" id="mask-8_1_">
						<g class="st8">
							<rect id="path-7_1_" x="0" class="st2" width="21.9" height="24"/>
						</g>
					</mask>
					<rect x="15.1" y="11.7" class="st9" width="3.8" height="4.3"/>
				</g>
			</g>
		</g>
		<g transform="translate(7.000000, 18.169014)">
			<g id="SVGID_9_">
			</g>
			<defs>
				<filter id="Adobe_OpacityMaskFilter_4_" filterUnits="userSpaceOnUse" x="-0.5" y="-0.5" width="4.2" height="5.3">
					<feColorMatrix  type="matrix" values="1 0 0 0 0  0 1 0 0 0  0 0 1 0 0  0 0 0 1 0"/>
				</filter>
			</defs>
			<mask maskUnits="userSpaceOnUse" x="-0.5" y="-0.5" width="4.2" height="5.3" id="mask-10_1_">
				<g class="st10">
					<path id="path-9_1_" class="st2" d="M3.1,0.1H2.3c0,0,0,0,0,0c-0.1,0.5-0.3,1.2-0.7,2l-0.7-2c0,0,0,0,0,0H0.1c0,0,0,0,0,0
						c0,0,0,0,0,0l1.1,3C1.1,3.4,1,3.6,0.9,3.8C0.8,3.9,0.7,4,0.6,4.2c0,0,0,0,0,0c0,0,0,0,0,0h0.8c0,0,0,0,0,0C1.7,4,1.8,3.6,2,3.2
						C2.5,2.1,2.8,1.1,3.1,0.1C3.1,0.1,3.1,0.1,3.1,0.1C3.1,0.1,3.1,0.1,3.1,0.1"/>
				</g>
			</mask>
			<g class="st11">
				<g transform="translate(0.000000, -12.169014)">
					<g id="SVGID_11_">
					</g>
					<defs>
						<filter id="Adobe_OpacityMaskFilter_5_" filterUnits="userSpaceOnUse" x="-0.5" y="11.7" width="4.2" height="5.3">
							<feColorMatrix  type="matrix" values="1 0 0 0 0  0 1 0 0 0  0 0 1 0 0  0 0 0 1 0"/>
						</filter>
					</defs>
					<mask maskUnits="userSpaceOnUse" x="-0.5" y="11.7" width="4.2" height="5.3" id="mask-12_1_">
						<g class="st12">
							<rect id="path-11_1_" class="st2" width="21.9" height="24"/>
						</g>
					</mask>
					<rect x="-0.5" y="11.7" class="st13" width="4.2" height="5.3"/>
				</g>
			</g>
		</g>
		<g transform="translate(10.267606, 18.056338)">
			<g id="SVGID_13_">
			</g>
			<defs>
				<filter id="Adobe_OpacityMaskFilter_6_" filterUnits="userSpaceOnUse" x="-0.5" y="-0.5" width="3.7" height="4.4">
					<feColorMatrix  type="matrix" values="1 0 0 0 0  0 1 0 0 0  0 0 1 0 0  0 0 0 1 0"/>
				</filter>
			</defs>
			<mask maskUnits="userSpaceOnUse" x="-0.5" y="-0.5" width="3.7" height="4.4" id="mask-14_1_">
				<g class="st14">
					<path id="path-13_1_" class="st2" d="M2.4,2.5C2.4,2.5,2.4,2.5,2.4,2.5C2.4,2.5,2.4,2.5,2.4,2.5c-0.2,0-0.6,0.1-0.8,0.1
						c-0.5,0-0.7-0.1-0.7-0.9c0-0.6,0.1-0.9,0.7-0.9c0.2,0,0.4,0,0.6,0.1c0,0,0,0,0,0c0.1-0.2,0.2-0.3,0.3-0.6c0,0,0,0,0,0
						c0,0,0,0,0,0c-0.3-0.1-0.6-0.1-1-0.1c-1.1,0-1.5,0.5-1.5,1.6c0,1.1,0.5,1.6,1.5,1.6c0.3,0,0.8-0.1,1-0.2c0,0,0,0,0-0.1L2.4,2.5
						"/>
				</g>
			</mask>
			<g class="st15">
				<g transform="translate(-3.267606, -12.056338)">
					<g id="SVGID_15_">
					</g>
					<defs>
						<filter id="Adobe_OpacityMaskFilter_7_" filterUnits="userSpaceOnUse" x="2.8" y="11.6" width="3.7" height="4.4">
							<feColorMatrix  type="matrix" values="1 0 0 0 0  0 1 0 0 0  0 0 1 0 0  0 0 0 1 0"/>
						</filter>
					</defs>
					<mask maskUnits="userSpaceOnUse" x="2.8" y="11.6" width="3.7" height="4.4" id="mask-16_1_">
						<g class="st16">
							<rect id="path-15_1_" x="0" y="0" class="st2" width="21.9" height="24"/>
						</g>
					</mask>
					<rect x="2.8" y="11.6" class="st17" width="3.7" height="4.4"/>
				</g>
			</g>
		</g>
		<g transform="translate(16.464789, 18.169014)">
			<g id="SVGID_17_">
			</g>
			<defs>
				<filter id="Adobe_OpacityMaskFilter_8_" filterUnits="userSpaceOnUse" x="-0.5" y="-0.5" width="4.2" height="5.3">
					<feColorMatrix  type="matrix" values="1 0 0 0 0  0 1 0 0 0  0 0 1 0 0  0 0 0 1 0"/>
				</filter>
			</defs>
			<mask maskUnits="userSpaceOnUse" x="-0.5" y="-0.5" width="4.2" height="5.3" id="mask-18_1_">
				<g class="st18">
					<path id="path-17_1_" class="st2" d="M3.1,0.1H2.4c0,0,0,0,0,0C2.2,0.6,2,1.3,1.7,2.1l-0.7-2c0,0,0,0,0,0H0.1c0,0,0,0,0,0
						c0,0,0,0,0,0l1.1,3C1.1,3.4,1,3.6,0.9,3.8C0.8,3.9,0.7,4,0.7,4.2c0,0,0,0,0,0c0,0,0,0,0,0h0.8c0,0,0,0,0,0C1.7,4,1.8,3.6,2,3.2
						C2.5,2.1,2.8,1.1,3.1,0.1C3.1,0.1,3.1,0.1,3.1,0.1C3.1,0.1,3.1,0.1,3.1,0.1"/>
				</g>
			</mask>
			<g class="st19">
				<g transform="translate(-9.464789, -12.169014)">
					<g id="SVGID_19_">
					</g>
					<defs>
						<filter id="Adobe_OpacityMaskFilter_9_" filterUnits="userSpaceOnUse" x="9" y="11.7" width="4.2" height="5.3">
							<feColorMatrix  type="matrix" values="1 0 0 0 0  0 1 0 0 0  0 0 1 0 0  0 0 0 1 0"/>
						</filter>
					</defs>
					<mask maskUnits="userSpaceOnUse" x="9" y="11.7" width="4.2" height="5.3" id="mask-20_1_">
						<g class="st20">
							<rect id="path-19_1_" x="0" class="st2" width="21.9" height="24"/>
						</g>
					</mask>
					<rect x="9" y="11.7" class="st21" width="4.2" height="5.3"/>
				</g>
			</g>
		</g>
		<g transform="translate(20.070423, 18.169014)">
			<g id="SVGID_21_">
			</g>
			<defs>
				<filter id="Adobe_OpacityMaskFilter_10_" filterUnits="userSpaceOnUse" x="-0.5" y="-0.5" width="3.3" height="4.2">
					<feColorMatrix  type="matrix" values="1 0 0 0 0  0 1 0 0 0  0 0 1 0 0  0 0 0 1 0"/>
				</filter>
			</defs>
			<mask maskUnits="userSpaceOnUse" x="-0.5" y="-0.5" width="3.3" height="4.2" id="mask-22_1_">
				<g class="st22">
					<path id="path-21_1_" class="st2" d="M2.2,0.1H0.1c0,0,0,0,0,0v3c0,0,0,0,0,0h0.7c0,0,0,0,0,0V0.8h1.1c0,0,0,0,0,0
						C2.1,0.6,2.1,0.4,2.2,0.1C2.2,0.1,2.2,0.1,2.2,0.1C2.2,0.1,2.2,0.1,2.2,0.1"/>
				</g>
			</mask>
			<g class="st23">
				<g transform="translate(-13.070423, -12.169014)">
					<g id="SVGID_23_">
					</g>
					<defs>
						<filter id="Adobe_OpacityMaskFilter_11_" filterUnits="userSpaceOnUse" x="12.5" y="11.7" width="3.3" height="4.2">
							<feColorMatrix  type="matrix" values="1 0 0 0 0  0 1 0 0 0  0 0 1 0 0  0 0 0 1 0"/>
						</filter>
					</defs>
					<mask maskUnits="userSpaceOnUse" x="12.5" y="11.7" width="3.3" height="4.2" id="mask-24_1_">
						<g class="st24">
							<rect id="path-23_1_" x="0" class="st2" width="21.9" height="24"/>
						</g>
					</mask>
					<rect x="12.5" y="11.7" class="st25" width="3.3" height="4.2"/>
				</g>
			</g>
		</g>
		<g transform="translate(9.366197, 13.661972)">
			<g id="SVGID_25_">
			</g>
			<defs>
				<filter id="Adobe_OpacityMaskFilter_12_" filterUnits="userSpaceOnUse" x="-0.5" y="-0.5" width="4" height="4.3">
					<feColorMatrix  type="matrix" values="1 0 0 0 0  0 1 0 0 0  0 0 1 0 0  0 0 0 1 0"/>
				</filter>
			</defs>
			<mask maskUnits="userSpaceOnUse" x="-0.5" y="-0.5" width="4" height="4.3" id="mask-26_1_">
				<g class="st26">
					<path id="path-25_1_" class="st2" d="M1.6,0c-1,0-1.4,0.4-1.4,1.6c0,1.2,0.4,1.6,1.4,1.6c1,0,1.5-0.5,1.5-1.6
						C3,0.5,2.6,0,1.6,0 M1.6,2.6c-0.5,0-0.6-0.1-0.6-0.9c0-0.9,0.2-0.9,0.6-0.9c0.5,0,0.6,0.1,0.6,0.9C2.2,2.4,2,2.6,1.6,2.6"/>
				</g>
			</mask>
			<g class="st27">
				<g transform="translate(-2.366197, -7.661972)">
					<g id="SVGID_27_">
					</g>
					<defs>
						<filter id="Adobe_OpacityMaskFilter_13_" filterUnits="userSpaceOnUse" x="1.9" y="7.1" width="4" height="4.3">
							<feColorMatrix  type="matrix" values="1 0 0 0 0  0 1 0 0 0  0 0 1 0 0  0 0 0 1 0"/>
						</filter>
					</defs>
					<mask maskUnits="userSpaceOnUse" x="1.9" y="7.1" width="4" height="4.3" id="mask-28_1_">
						<g class="st28">
							<rect id="path-27_1_" x="0" class="st2" width="21.9" height="24"/>
						</g>
					</mask>
					<rect x="1.9" y="7.1" class="st29" width="4" height="4.3"/>
				</g>
			</g>
		</g>
		<g transform="translate(12.859155, 13.661972)">
			<g id="SVGID_29_">
			</g>
			<defs>
				<filter id="Adobe_OpacityMaskFilter_14_" filterUnits="userSpaceOnUse" x="-0.5" y="-0.5" width="3.7" height="4.4">
					<feColorMatrix  type="matrix" values="1 0 0 0 0  0 1 0 0 0  0 0 1 0 0  0 0 0 1 0"/>
				</filter>
			</defs>
			<mask maskUnits="userSpaceOnUse" x="-0.5" y="-0.5" width="3.7" height="4.4" id="mask-30_1_">
				<g class="st30">
					<path id="path-29_1_" class="st2" d="M2.4,2.5C2.4,2.4,2.4,2.4,2.4,2.5C2.4,2.4,2.4,2.4,2.4,2.5c-0.2,0-0.6,0.1-0.8,0.1
						c-0.5,0-0.7-0.1-0.7-0.9c0-0.6,0.1-0.9,0.7-0.9c0.2,0,0.4,0,0.6,0.1c0,0,0,0,0,0c0.1-0.2,0.2-0.3,0.3-0.6c0,0,0,0,0,0
						c0,0,0,0,0,0C2.2,0.1,1.9,0,1.6,0C0.5,0,0,0.5,0,1.6c0,1.1,0.5,1.6,1.5,1.6c0.3,0,0.8-0.1,1-0.2c0,0,0,0,0-0.1L2.4,2.5"/>
				</g>
			</mask>
			<g class="st31">
				<g transform="translate(-5.859155, -7.661972)">
					<g id="SVGID_31_">
					</g>
					<defs>
						<filter id="Adobe_OpacityMaskFilter_15_" filterUnits="userSpaceOnUse" x="5.3" y="7.1" width="3.7" height="4.4">
							<feColorMatrix  type="matrix" values="1 0 0 0 0  0 1 0 0 0  0 0 1 0 0  0 0 0 1 0"/>
						</filter>
					</defs>
					<mask maskUnits="userSpaceOnUse" x="5.3" y="7.1" width="3.7" height="4.4" id="mask-32_1_">
						<g class="st32">
							<rect id="path-31_1_" x="0" class="st2" width="21.9" height="24"/>
						</g>
					</mask>
					<rect x="5.3" y="7.1" class="st33" width="3.7" height="4.4"/>
				</g>
			</g>
		</g>
		<g transform="translate(7.000000, 13.774648)">
			<g id="SVGID_33_">
			</g>
			<defs>
				<filter id="Adobe_OpacityMaskFilter_16_" filterUnits="userSpaceOnUse" x="-0.5" y="-0.6" width="3.3" height="4.2">
					<feColorMatrix  type="matrix" values="1 0 0 0 0  0 1 0 0 0  0 0 1 0 0  0 0 0 1 0"/>
				</filter>
			</defs>
			<mask maskUnits="userSpaceOnUse" x="-0.5" y="-0.6" width="3.3" height="4.2" id="mask-34_1_">
				<g class="st34">
					<path id="path-33_1_" class="st2" d="M2.3,0H0.1c0,0,0,0,0,0v3c0,0,0,0,0,0h0.7c0,0,0,0,0,0V0.7H2c0,0,0,0,0,0
						C2.1,0.5,2.2,0.3,2.3,0C2.3,0.1,2.3,0,2.3,0C2.3,0,2.3,0,2.3,0"/>
				</g>
			</mask>
			<g class="st35">
				<g transform="translate(0.000000, -7.774648)">
					<g id="SVGID_35_">
					</g>
					<defs>
						<filter id="Adobe_OpacityMaskFilter_17_" filterUnits="userSpaceOnUse" x="-0.5" y="7.2" width="3.3" height="4.2">
							<feColorMatrix  type="matrix" values="1 0 0 0 0  0 1 0 0 0  0 0 1 0 0  0 0 0 1 0"/>
						</filter>
					</defs>
					<mask maskUnits="userSpaceOnUse" x="-0.5" y="7.2" width="3.3" height="4.2" id="mask-36_1_">
						<g class="st36">
							<rect id="path-35_1_" y="0" class="st2" width="21.9" height="24"/>
						</g>
					</mask>
					<rect x="-0.5" y="7.2" class="st37" width="3.3" height="4.2"/>
				</g>
			</g>
		</g>
		
			<linearGradient id="Shape_1_" gradientUnits="userSpaceOnUse" x1="-29.0237" y1="67.7028" x2="-29.0237" y2="66.7028" gradientTransform="matrix(20.9988 0 0 -23.8967 627.7899 1623.9692)">
			<stop  offset="0.3979" style="stop-color:#1466AC"/>
			<stop  offset="0.6586" style="stop-color:#EF4058"/>
		</linearGradient>
		<path id="Shape" class="st38" d="M28.7,21C28.7,21,28.7,21,28.7,21c0-0.1,0-0.1,0-0.1c0-0.4,0.1-0.9,0.1-1.5c0,0,0,0,0,0
			c0-0.4,0-0.8,0-1.3s0-0.9,0-1.3c0,0,0,0,0,0c0-0.6,0-1.1-0.1-1.5c0,0,0-0.1,0-0.1c0,0,0,0,0,0c0,0,0-0.1,0-0.1c0,0,0,0,0-0.1
			c0-0.4-0.1-0.7-0.1-0.7c0,0,0-0.1,0-0.1c0,0,0,0,0,0c0-0.1,0-0.2,0-0.2c0,0,0,0,0,0c-0.2-0.9-0.7-1.9-1.3-2.7
			c-0.2-0.3-0.5-0.5-0.8-0.7c0,0-0.3-0.3-0.8-0.6c-0.6-0.4-1.4-0.9-2.3-1.5c-1.7-1-3.1-1.7-3.3-1.7c0,0,0,0,0,0c0,0,0,0,0,0
			c0,0,0,0,0,0l0,0c0,0,0,0,0,0c-0.4-0.2-1-0.3-1.5-0.4c-0.1,0-0.2,0-0.3,0c-0.1,0-0.2,0-0.3,0c-0.1,0-0.1,0-0.2,0
			c-0.8,0-1.5,0.2-2,0.4c0,0,0,0,0,0c-0.1,0-1.6,0.7-3.3,1.7h0c0,0,0,0-0.1,0c-1.7,1-3.1,2-3.2,2.1c-0.4,0.3-0.8,0.7-1.2,1.2
			C7.8,11.7,7.8,12,8.1,12H9c0.4,0,0.5-0.2,0.9-0.5c0.5-0.3,1.4-1,3-2c1.2-0.7,2.3-1.3,2.9-1.5c0,0,0,0,0,0c0,0,0,0,0,0c0,0,0,0,0,0
			c0,0,0,0,0,0c0,0,0,0,0,0c0,0,0,0,0,0c0,0,0,0,0,0c0,0,0,0,0,0c0.1-0.1,0.2-0.1,0.2-0.1c0.4-0.2,0.9-0.3,1.5-0.3c0,0,0.1,0,0.1,0
			c0,0,0.1,0,0.1,0c0.2,0,0.3,0,0.5,0c0.3,0,0.7,0.1,0.9,0.2c0,0,0.1,0,0.1,0c0,0,0,0,0,0c0.3,0.1,1.7,0.8,3.2,1.7
			c0.9,0.5,1.7,1.1,2.3,1.4c0.5,0.3,0.8,0.6,0.8,0.6c0.2,0.2,0.4,0.4,0.6,0.6c0.5,0.7,0.9,1.5,1,2.2c0,0,0,0.3,0.1,0.7
			c0,0,0,0.1,0,0.1c0,0,0,0,0,0.1c0,0,0,0.1,0,0.1c0,0,0,0,0,0c0,0,0,0.1,0,0.1c0,0.1,0,0.1,0,0.2c0,0,0,0.1,0,0.1c0,0,0,0,0,0
			c0,0,0,0.1,0,0.1c0,0,0,0.1,0,0.1c0,0.6,0.1,1.3,0.1,2s0,1.4-0.1,2c0,0,0,0.1,0,0.1c0,0,0,0.1,0,0.1c0,0,0,0,0,0c0,0,0,0.1,0,0.1
			c0,0.1,0,0.1,0,0.2c0,0,0,0.1,0,0.1c0,0,0,0,0,0c0,0,0,0.1,0,0.1c0,0,0,0,0,0.1c0,0,0,0.1,0,0.1c0,0.5-0.1,0.7-0.1,0.7
			c-0.1,0.7-0.5,1.6-1,2.2c-0.2,0.3-0.4,0.5-0.6,0.6c0,0-0.3,0.2-0.8,0.6c-0.6,0.4-1.4,0.9-2.3,1.4c-1.5,0.9-2.9,1.6-3.2,1.7
			c0,0,0,0,0,0c0,0-0.1,0-0.1,0c-0.3,0.1-0.6,0.2-0.9,0.2c-0.2,0-0.3,0-0.5,0c0,0-0.1,0-0.1,0c0,0-0.1,0-0.1,0
			c-0.6,0-1.1-0.1-1.5-0.3c0,0-0.1,0-0.2-0.1c0,0,0,0,0,0c0,0,0,0,0,0c0,0,0,0,0,0c0,0,0,0,0,0c0,0,0,0,0,0c0,0,0,0,0,0c0,0,0,0,0,0
			c0,0,0,0,0,0c-0.6-0.3-1.7-0.8-2.8-1.5c-1.7-1-2.6-1.7-3-2c-0.4-0.3-0.5-0.5-0.9-0.5H8.1c-0.3,0-0.3,0.3-0.3,0.4
			C8.2,25,8.6,25.4,9,25.7c0.1,0,1.4,1.1,3.2,2.1c0.1,0.1,0.2,0.1,0.3,0.2h0c1.6,0.9,3,1.6,3.1,1.6c0,0,0,0,0,0
			c0.6,0.3,1.3,0.4,2,0.4c0.1,0,0.1,0,0.2,0c0.1,0,0.2,0,0.3,0c0.1,0,0.2,0,0.3,0c0.6-0.1,1.1-0.2,1.5-0.4c0,0,0,0,0,0l0,0
			c0,0,0,0,0,0c0,0,0,0,0,0c0,0,0,0,0,0c0.2-0.1,1.7-0.8,3.3-1.7c0.9-0.5,1.8-1.1,2.3-1.5c0.5-0.3,0.8-0.6,0.8-0.6
			c0.3-0.2,0.5-0.5,0.8-0.7c0.6-0.8,1.1-1.8,1.3-2.7c0,0,0,0,0,0c0-0.1,0-0.2,0-0.2c0,0,0,0,0,0c0,0,0-0.1,0-0.1c0,0,0-0.3,0.1-0.7
			c0,0,0,0,0-0.1C28.7,21.1,28.7,21,28.7,21"/>
	</g>
</g>
</svg>
