<?xml version="1.0" encoding="utf-8"?>
<!-- Generator: Adobe Illustrator 23.0.2, SVG Export Plug-In . SVG Version: 6.00 Build 0)  -->
<svg version="1.1" id="Слой_1" xmlns="http://www.w3.org/2000/svg" xmlns:xlink="http://www.w3.org/1999/xlink" x="0px" y="0px"
	 viewBox="0 0 498.3 268" style="enable-background:new 0 0 498.3 268;" xml:space="preserve">
<style type="text/css">
	.st0{fill:#22356B;}
</style>
<g id="Слой_x0020_1">
	<path class="st0" d="M456.4,192.2c-1.4,0-3.4,0.7-4.7,2c-41.2,35.8-119.5,60.1-208.6,60.1c-101.3,0-187.7-31.1-223.4-74.9
		c-0.7-0.7,0-1.4,0.7-1.4c1.4,0,2,0,2.7,1.4c34.4,36.4,108.6,61.4,194.4,61.4c68.9,0,129.6-15.5,168.8-40.5c4.1-2.7,2-8.1-2-8.1
		h-12.2c-1.4,0-3.4,0.7-4.7,1.4c-36.5,25-95.2,40.5-161.3,40.5c-111.4,0-199.8-44.6-199.8-99.9c0-56,88.4-100.6,199.8-100.6
		c66.2,0,124.9,15.5,161.3,40.5c1.4,0.7,3.4,1.4,4.7,1.4h12.2c4.1,0,6.1-5.4,2-7.4c-39.2-25-99.9-41.2-168.8-41.2
		c-85.7,0-160,25-194.4,62.1c-0.7,0.7-2,1.4-2.7,1.4c-1.4,0-1.4-1.4-0.7-2c35.8-43.9,122.2-74.9,223.4-74.9
		c89.1,0,167.4,24.3,208.6,60.1c1.4,1.4,3.4,2,4.7,2h31.7c7.4,0,11.5-9.5,5.4-14.2C445.6,24.3,362.5,0,268,0C120.2,0,0,60.1,0,134.3
		C0,207.9,120.2,268,268,268c94.5,0,177.5-24.3,225.5-61.4c6.1-4.7,2-14.2-5.4-14.2h-31.7V192.2z"/>
	<path class="st0" d="M85.8,178.7V153h-4.7L73,165.2L65.6,153h-5.4v25.7h4.7v-18.2l8.1,12.2l8.1-12.2v18.2H85.8z M108.1,175.3
		c-5.4,0-8.8-4.7-8.8-9.5c0-5.4,3.4-9.5,8.8-9.5s8.8,4.1,8.8,9.5C116.9,170.6,113.5,175.3,108.1,175.3z M108.1,152.4
		c-8.1,0-13.5,6.1-13.5,13.5s5.4,13.5,13.5,13.5s13.5-6.1,13.5-13.5S116.2,152.4,108.1,152.4z M134.4,153h-4.1v25.7h4.7v-18.2
		l14.2,18.2h3.4V153h-4.1v17.6L134.4,153z M183.7,174.6h-14.9v-6.8h12.8v-4h-12.8V157h14.9v-4.1h-19.6v25.7h19.6V174.6z M206,178.7
		v-10.1l10.1-15.5h-5.4l-7.4,11.5l-6.8-11.5h-5.4l10.1,15.5v10.1H206z M247.2,178.7v-21.6h8.1V153h-20.9v4.1h8.1v21.6H247.2z
		 M269.4,165.9v-8.8h6.8c3.4,0,5.4,1.4,5.4,4.1s-2.7,4.7-5.4,4.7L269.4,165.9L269.4,165.9z M279.6,169.2c4.1-1.4,6.1-4.1,6.1-8.1
		c0-4.7-3.4-8.1-9.5-8.1h-11.5v25.7h4.7v-8.8h5.4l6.8,8.8h5.4L279.6,169.2z M303.2,168.6l4.1-10.8l4.7,10.8H303.2z M309.3,152.4
		h-4.1l-11.5,26.3h4.7l2.7-6.1h12.2l2.7,6.1h4.7L309.3,152.4z M334.2,153h-4.1v25.7h4.1v-18.2l14.9,18.2h3.4V153h-4.1v17.6
		L334.2,153z M372.7,175.3c-2.7,0-5.4-1.4-8.1-3.4l-2.7,3.4c3.4,2.7,6.8,4.1,10.8,4.1c5.4,0,9.5-3.4,9.5-8.1c0-4.1-2.7-6.1-8.1-7.4
		s-6.1-2-6.1-4.1s1.4-3.4,4.1-3.4c2,0,4.7,0.7,6.8,2.7l2.7-3.4c-2.7-2-5.4-3.4-9.5-3.4c-5.4,0-8.8,3.4-8.8,7.4
		c0,4.7,2.7,6.8,8.8,8.1c4.7,1.4,5.4,2,5.4,4.1C377.4,174,376.1,175.3,372.7,175.3z M489.5,175.3c-3.4,0-6.1-1.4-8.1-3.4l-2.7,3.4
		c2.7,2.7,6.8,4.1,10.8,4.1c5.4,0,8.8-3.4,8.8-8.1c0-4.1-2.7-6.1-8.1-7.4c-4.7-1.4-6.1-2-6.1-4.1s1.4-3.4,4.1-3.4s4.7,0.7,7.4,2.7
		l2-3.4c-2.7-2-5.4-3.4-9.5-3.4c-4.7,0-8.8,3.4-8.8,7.4c0,4.7,3.4,6.8,8.8,8.1c4.7,1.4,6.1,2,6.1,4.1
		C494.2,174,492.2,175.3,489.5,175.3z M411.2,157.1V153h-18.9v25.7h4.1v-10.8h13.4v-4.1h-13.5V157L411.2,157.1L411.2,157.1z
		 M439.6,157.1V153H420v25.7h19.6v-4.1h-14.9v-6.8h12.8v-4h-12.8V157L439.6,157.1L439.6,157.1z M454.4,165.9v-8.8h6.8
		c3.4,0,5.4,1.4,5.4,4.1s-2.7,4.7-5.4,4.7L454.4,165.9L454.4,165.9z M464.5,169.2c4.1-1.4,6.1-4.1,6.1-8.1c0-4.7-3.4-8.1-9.5-8.1
		h-11.5v25.7h4.7v-8.8h5.4l6.8,8.8h5.4L464.5,169.2z M338.3,140.2h38.5c-0.7-2.7-2.7-8.1-8.8-8.1h-16.9c-0.7,0-2-1.4-2-2v-8.8
		c0-1.4,1.4-2,2-2h22.3v-8.1h-22.3c-0.7,0-2-0.7-2-2v-8.8c0-0.7,0.7-2,2-2H368c5.4,0,8.1-5.4,8.1-8.1h-37.8L338.3,140.2L338.3,140.2
		z M99.3,89.6h-2c-6.1,0-8.8,4.1-9.5,10.8v26.3c0,3.4-2.7,5.4-6.1,5.4h-7.4c-4.1,0-6.8-2.7-6.8-6.1v-25.7c0-7.4-2.7-10.8-8.8-10.8
		h-2v35.1c0,8.1,7.4,15.5,16.2,15.5H83c8.8,0,16.2-7.4,16.2-15.5v-35H99.3z M298.5,113.9c-1.4-0.7-2-1.4-2-2.7v-10.8
		c0-0.7,0.7-2,2-2h12.8c4.1,0.7,5.4,2,5.4,6.1v2.7c0,4.1-2.7,6.8-6.8,6.8h-11.4V113.9z M309.3,123.3l8.1,13.5
		c1.4,2.7,3.4,4.1,6.1,4.1h7.4l-9.5-16.9c0-1.4-0.7-2-1.4-2.7l-1.4-0.7l1.4-1.4c4.7-2.7,7.4-8.1,7.4-13.5v-4.1
		c0-6.8-4.7-11.5-10.8-11.5h-31.1v50h10.8v-16.2c0-1.4,0.7-2,2-2h8.8C308.6,122,309.3,122,309.3,123.3z M413.2,118.6h-10.8
		c-1.4,0-2-0.7-2-2c0,0,2.7-16.2,3.4-16.9c0.7-1.4,1.4-1.4,2-1.4h3.4c0.7,0,1.4,0,2,1.4c0.7,0.7,4.1,16.9,4.1,16.9
		C415.2,117.9,414.6,118.6,413.2,118.6z M418.6,91.6c0-0.7-0.7-1.4-1.4-1.4h-19.6c-0.7,0-1.4,0.7-1.4,1.4l-12.8,48.6h1.4
		c6.8,0,10.8-3.4,12.2-10.1l0.7-1.4c0-0.7,0.7-1.4,2-1.4h15.5c2,0,2.7,2,2.7,2l0.7,1.4c1.4,6.8,2,8.8,2,9.5h10.8L418.6,91.6z
		 M165.5,140.2H177V89.6h-2c-6.1,0-9.5,3.4-9.5,10.8V140.2z M155.4,140.2V89.6h-2c-6.1,0-8.8,3.4-8.8,10.8v8.1l0.7,11.5
		c0,1.4-1.4,2-2.7,2h-1.4v-0.7l-20.3-31.1h-11.5v50h1.4c6.1,0,9.5-3.4,9.5-10.1V122l-0.7-11.5c0.7-1.4,2-2,2.7-1.4l0.7-0.7l0.7,1.4
		l20.3,30.4H155.4L155.4,140.2z M240.4,90.3c-5.4,0-8.1,4.7-8.1,8.1h15.5c1.4,0,2,0.7,2,2v39.8h10.8v-39.8c0-1.4,1.4-2,2-2h8.1
		c5.4,0,8.1-5.4,8.1-8.1H240.4z M228.3,122.7c0-6.8-5.4-11.5-11.5-11.5h-17.6c-1.4,0-2.7-1.4-2.7-2v-4.7c0.7-3.4,2.7-6.1,6.8-6.1
		h14.2c6.1,0,8.1-5.4,8.8-8.1H202c-8.8,0-15.5,6.8-16.2,14.9v2.7c0,6.8,5.4,11.5,11.5,11.5h17.5c1.4,0,2.7,1.4,2.7,2l-0.7,5.4
		c0,3.4-2.7,5.4-6.1,5.4h-16.9c-5.4,0-7.4,5.4-7.4,8.1h25.7c8.8,0,15.5-6.8,16.2-15.5V122.7z"/>
	<path class="st0" d="M122.9,109.8c-0.7-1.4-2.7-0.7-2.7,0.7v19.6c0,6.8-2.7,10.1-8.8,10.1h-2v-50h11.5l20.3,30.4
		c1.4,1.4,2.7,0.7,3.4-0.7V99.6c0-6.8,2.7-10.1,8.8-10.1h1.4v50H144L122.9,109.8z M484.8,90.3h-4.1c-0.7,0.7-1.4,1.4-2.7,4.7
		c0,0-8.1,23-9.5,25.7c-0.7,0.7-0.7,0.7-1.4,0.7c-0.7,0-1.4,0-2-0.7c-0.7-2.7-9.5-25.7-9.5-25.7c-1.4-3.4-1.4-4.1-2.7-4.7h-14.2
		l0.7,50h1.4c6.1,0,8.8-3.4,8.8-10.1v-18.9c0-1.4,1.4-2,2-2c0.7,0,1.4,0.7,2,1.4l8.8,23h9.5l8.8-23c0-0.7,1.4-1.4,2-1.4
		c0.7,0,1.4,0.7,1.4,2v18.9c0,6.8,3.4,10.1,9.5,10.1h1.4v-50H484.8z"/>
</g>
</svg>
