<?xml version="1.0" encoding="utf-8"?>
<!-- Generator: Adobe Illustrator 23.0.2, SVG Export Plug-In . SVG Version: 6.00 Build 0)  -->
<svg version="1.1" id="Слой_1" xmlns="http://www.w3.org/2000/svg" xmlns:xlink="http://www.w3.org/1999/xlink" x="0px" y="0px"
	 viewBox="0 0 47.6 45.8" style="enable-background:new 0 0 47.6 45.8;" xml:space="preserve">
<style type="text/css">
	.st0{fill:#1A9F29;}
</style>
<path class="st0" d="M43.7,8.9c-0.5-0.7-1-1.4-1.5-2.1L14.5,22.7L1.1,15c-0.3,0.9-0.5,1.7-0.6,2.6l14.1,8.1L43.7,8.9z"/>
<path class="st0" d="M14.5,28.7L0.1,20.4C0,20.9,0,21.5,0,22c0,13.1,10.6,23.8,23.8,23.8c13.1,0,23.8-10.6,23.8-23.8
	c0-3.9-0.9-7.6-2.6-10.8L14.5,28.7z"/>
<path class="st0" d="M40.3,4.8c-0.7-0.7-1.4-1.2-2.1-1.8L14.5,16.7L3.1,10.2c-0.4,0.7-0.8,1.5-1.2,2.3l12.5,7.2L40.3,4.8z"/>
<path class="st0" d="M35.8,1.4C34.9,0.9,34,0.4,33,0L14.5,10.7L6.2,6C5.6,6.6,5.1,7.3,4.5,8l9.9,5.7L35.8,1.4z"/>
</svg>
