<?xml version="1.0" encoding="utf-8"?>
<!-- Generator: Adobe Illustrator 23.0.2, SVG Export Plug-In . SVG Version: 6.00 Build 0)  -->
<svg version="1.1" id="Слой_1" xmlns="http://www.w3.org/2000/svg" xmlns:xlink="http://www.w3.org/1999/xlink" x="0px" y="0px"
	 viewBox="0 0 90.9 78.5" style="enable-background:new 0 0 90.9 78.5;" xml:space="preserve">
<style type="text/css">
	.st0{fill:#F8BD15;}
	.st1{fill:#FFFFFF;}
</style>
<path class="st0" d="M37.1,8.3c2.8-2.8,5.5-5.6,8.4-8.3c3,2.8,5.9,5.6,8.9,8.3c-3,2.7-5.9,5.6-8.9,8.3C42.6,13.9,39.9,11.1,37.1,8.3
	z"/>
<path class="st0" d="M28.5,21.5c4.8-1.3,9.8-1.8,14.8-2.1c0,15.9,0,31.8,0,47.6c-5.4,0-10.7,0-16.1,0c-1.8,0-3.3-1.4-4-3
	c-3.9-9.1-7.6-18.4-11.6-27.5c-1,0.7-2.1,1.5-3.1,2.1c3.6,9.5,7.8,18.8,11.5,28.3c-2.8,0-5.6,0.1-8.4-0.1C8.7,56.3,4.2,46.4,0,36.4
	C8.1,29.3,17.9,24,28.5,21.5z"/>
<path class="st0" d="M47.6,19.4c6.9,0.4,13.9,1.4,20.5,3.8c8.4,2.8,16.1,7.6,22.8,13.3C87.2,46.9,82.6,57,78.2,67.1
	c-2.4,0-4.8,0-7.2,0c3.2-7.9,6.5-15.7,9.7-23.6c0.7-1.6,1.3-3.1,1.8-4.7c-1.1-0.7-2.1-1.4-3.3-2.1c-3.7,9.1-7.6,18.1-11.4,27.2
	c-0.6,1.7-2.2,3.3-4.1,3.2c-5.4,0-10.7,0-16.1,0C47.7,51.1,47.6,35.2,47.6,19.4z"/>
<path class="st1" d="M18.9,33.3c5.3-2.3,10.9-3.9,16.6-5c0,10.9,0,21.7,0,32.6c-2.1,0-5,0.7-6-1.6C25.8,50.6,22.5,41.9,18.9,33.3z"
	/>
<path class="st1" d="M55.4,28.3c5.6,1,11.1,2.6,16.3,4.9c0.2,0.9-0.5,1.8-0.8,2.7c-2.8,7-5.7,14-8.5,21c-0.6,1.5-1.1,3.3-2.7,4
	c-1.4,0.2-2.9,0.1-4.3,0.1C55.5,50,55.4,39.1,55.4,28.3z"/>
<path class="st0" d="M13.2,70.8c21.7,0,43.4,0,65,0c0,2.6,0,5.1,0,7.7c-21.7,0-43.4,0-65,0C13.2,75.9,13.2,73.3,13.2,70.8z"/>
</svg>
