<?xml version="1.0" encoding="utf-8"?>
<!-- Generator: Adobe Illustrator 23.0.3, SVG Export Plug-In . SVG Version: 6.00 Build 0)  -->
<svg version="1.2" baseProfile="tiny" id="Layer_1" xmlns="http://www.w3.org/2000/svg" xmlns:xlink="http://www.w3.org/1999/xlink"
	 x="0px" y="0px" viewBox="0 0 2806.6 512.1" xml:space="preserve">
<path fill="#0DD149" d="M527.8,288H290.5l158,158c6,6,16,6.5,22.2,0.7c38.7-36.5,65.3-85.6,73.1-140.9
	C545.2,296.4,537.3,288,527.8,288L527.8,288z"/>
<path fill="#01AFFF" d="M512,223.2C503.7,103.7,408.3,8.3,288.8,0C279.7-0.6,272,7.1,272,16.2V240h223.8
	C504.9,240,512.6,232.3,512,223.2L512,223.2z"/>
<path fill="#01AFFF" d="M224,288V50.7c0-9.5-8.4-17.4-17.8-16.1C87,51.5-4.1,155.6,0.1,280.4C4.5,408.5,114.8,513.6,243,512
	c50.4-0.6,97-16.9,135.3-44c7.9-5.6,8.4-17.2,1.6-24.1L224,288z"/>
<path fill="#3C3E44" d="M925.8,336.5c0,20.2-3.4,37-10.3,50.5c-6.8,13.5-16.1,24.3-27.8,32.4c-11.7,8.1-25.5,13.9-41.6,17.3
	c-16,3.4-33.2,5.1-51.5,5.1c-14.8,0-30-0.8-45.9-2.4c-15.8-1.6-31.5-4-47-7.3V107.7c12.6-2.2,26.4-4,41.6-5.7
	c15.1-1.6,30-2.4,44.8-2.4c25.2,0,45.7,2.6,61.5,7.8c15.8,5.2,28.2,12.1,37.2,20.5c9,8.5,15.1,17.9,18.3,28.3
	c3.2,10.4,4.9,20.9,4.9,31.3c0,15.8-3.9,29.9-11.6,42.1c-7.7,12.2-18.1,21.9-31,29.1c22.7,8.3,38,19.4,46.1,33.5
	C921.8,306.3,925.8,321,925.8,336.5z M794.1,236.1c16.9,0,29.7-3.7,38.3-11.1c8.6-7.4,13-17.5,13-30.5c0-7.9-1.3-14.3-3.8-19.2
	c-2.5-4.9-5.9-8.6-10.3-11.3c-4.3-2.7-9.4-4.5-15.1-5.4c-5.8-0.9-11.7-1.3-17.8-1.3c-5,0-10.3,0.2-15.6,0.5
	c-5.4,0.4-10.3,0.9-14.6,1.6v76.6H794.1z M768.2,291.1v90.7c4.7,0.7,9.8,1.3,15.4,1.6c5.6,0.4,11.1,0.5,16.5,0.5
	c7.6,0,14.9-0.6,22.1-1.9c7.2-1.3,13.6-3.6,19.2-7c5.6-3.4,10.2-8.3,13.8-14.6c3.6-6.3,5.4-14.3,5.4-24c0-16.2-5.1-27.8-15.4-34.8
	s-24-10.5-41.3-10.5H768.2z"/>
<path fill="#3C3E44" d="M1136.3,437.4l-15.6-77.2h-89l-15.1,77.2h-69.1c15.8-65.8,31.8-125.8,48-180c16.2-54.1,31.8-105.5,47-154.1
	h72.3c15.8,48.9,31.6,100.8,47.2,155.7c15.6,54.9,30.8,114.3,45.6,178.4H1136.3z M1076.9,168.1c-3.6,12.6-6.9,24.6-10,35.9
	c-3.1,11.3-5.9,22.5-8.6,33.5c-2.7,11-5.2,22-7.6,33.2c-2.3,11.2-4.6,22.7-6.7,34.5h65.3c-2.2-11.9-4.3-23.4-6.5-34.5
	c-2.2-11.1-4.6-22.2-7.3-33.2c-2.7-11-5.6-22.1-8.6-33.5C1083.9,192.7,1080.5,180.7,1076.9,168.1z"/>
<path fill="#3C3E44" d="M1404,437.4c-15.1-37.1-31.6-74-49.4-110.9c-17.8-36.9-37-73.8-57.5-110.9v221.8h-59.9V103.3h53.4
	c10.1,15.8,20.1,33,30.2,51.5c10.1,18.5,19.9,37,29.4,55.3c9.5,18.3,18.3,36.2,26.4,53.4c8.1,17.3,15,32.4,20.8,45.3V103.3h59.9
	v334.1H1404z"/>
<path fill="#3C3E44" d="M1671.1,437.4c-4-12.6-9.6-26.2-17-40.7c-7.4-14.6-15.6-28.8-24.6-42.6c-9-13.8-18.4-26.8-28.3-38.9
	c-9.9-12.1-19.3-22.2-28.3-30.5v152.7h-66.4V103.3h66.4V242c7.9-10.1,16.2-21.2,24.8-33.5c8.6-12.2,16.8-24.5,24.6-36.7
	c7.7-12.2,14.8-24.3,21.3-36.2c6.5-11.9,11.9-22.7,16.2-32.4h75c-5,9.7-11.1,20.8-18.1,33.2c-7,12.4-15,25.4-24,38.9
	c-9,13.5-18.6,27.3-28.9,41.3c-10.3,14-21,27.5-32.1,40.5c11.1,10.8,22.5,23.2,34,37.2c11.5,14,22.4,29.1,32.7,45.1
	c10.3,16,19.5,32.4,27.8,49.1c8.3,16.7,14.9,33,20,48.8H1671.1z"/>
<path fill="#3C3E44" d="M1781.2,437.4v-55h72.9v-224h-72.9v-55h212.1v55H1921v224h72.3v55H1781.2z"/>
<path fill="#3C3E44" d="M2137.4,99.6c19.1,0,36.3,2.2,51.8,6.5c15.5,4.3,28.8,11,39.9,20c11.1,9,19.7,20.4,25.6,34.3
	c5.9,13.9,8.9,30.1,8.9,48.8c0,19.4-4,37.1-11.9,52.9c-7.9,15.8-21,27.9-39.4,36.2c6.1,9.4,12.6,19.7,19.4,31
	c6.8,11.3,13.5,23.2,20,35.6c6.5,12.4,12.7,24.8,18.6,37.2c5.9,12.4,11.1,24.2,15.4,35.3h-69.6c-8.3-21.6-17.9-42.4-28.9-62.3
	c-11-20-22.8-40.2-35.3-60.7h-34.5v123H2051V108.2c6.5-1.4,13.6-2.8,21.3-4c7.7-1.3,15.6-2.2,23.5-2.7c7.9-0.5,15.5-1,22.7-1.3
	C2125.7,99.7,2132,99.6,2137.4,99.6z M2196.2,208.6c0-17.6-5.4-30.6-16.2-38.9c-10.8-8.3-25-12.4-42.6-12.4c-2.5,0-5.6,0.1-9.2,0.3
	c-3.6,0.2-7.2,0.6-10.8,1.3v100.4h14.6c22.7,0,39-4.4,49.1-13.2C2191.2,237.3,2196.2,224.8,2196.2,208.6z"/>
<path fill="#0DD149" d="M2306.3,270.1c0-57.6,10.6-101,31.8-130.3c21.2-29.3,50.7-44,88.5-44c39.2,0,69.1,14.7,89.6,44
	c20.5,29.3,30.8,72.8,30.8,130.3c0,57.6-10.4,101-31.3,130.3c-20.9,29.3-50.4,44-88.5,44c-39.2,0-69.2-14.7-89.9-44
	C2316.6,371.1,2306.3,327.7,2306.3,270.1z M2373.8,270.1c0,16.2,0.6,31.4,1.9,45.6c1.3,14.2,3.8,26.5,7.6,37
	c3.8,10.4,9.1,18.7,15.9,24.8c6.8,6.1,16,9.2,27.5,9.2c11.1,0,20.2-3.1,27.3-9.2c7-6.1,12.4-14.5,16.2-25.1
	c3.8-10.6,6.3-22.9,7.6-37c1.3-14,1.9-29.1,1.9-45.3c0-16.2-0.6-31.4-1.9-45.6c-1.3-14.2-3.8-26.5-7.6-37
	c-3.8-10.4-9.1-18.7-15.9-24.8c-6.8-6.1-16-9.2-27.5-9.2c-11.5,0-20.7,3.1-27.5,9.2c-6.8,6.1-12.1,14.5-15.9,25.1
	c-3.8,10.6-6.3,22.9-7.6,37C2374.4,238.8,2373.8,253.9,2373.8,270.1z"/>
<path fill="#0DD149" d="M2753.2,437.4c-15.1-37.1-31.6-74-49.4-110.9c-17.8-36.9-37-73.8-57.5-110.9v221.8h-59.9V103.3h53.4
	c10.1,15.8,20.1,33,30.2,51.5c10.1,18.5,19.9,37,29.4,55.3c9.5,18.3,18.3,36.2,26.4,53.4c8.1,17.3,15,32.4,20.8,45.3V103.3h59.9
	v334.1H2753.2z"/>
</svg>
