<?xml version="1.0" encoding="utf-8"?>
<!-- Generator: Adobe Illustrator 23.0.2, SVG Export Plug-In . SVG Version: 6.00 Build 0)  -->
<svg version="1.1" id="Слой_1" xmlns="http://www.w3.org/2000/svg" xmlns:xlink="http://www.w3.org/1999/xlink" x="0px" y="0px"
	 viewBox="0 0 1000 1000" style="enable-background:new 0 0 1000 1000;" xml:space="preserve">
<style type="text/css">
	.st0{fill:#01AFFF;}
</style>
<g>
	<g transform="translate(0.000000,511.000000) scale(0.100000,-0.100000)">
		<path class="st0" d="M4560.9,4991.3c-621.9-59.1-1148-208-1723-487.3C1579.8,3892.3,605.2,2703.5,260.6,1357.8
			C46.5,521.8,46.5-302,260.6-1138c161.1-634.1,499.6-1302.9,927.7-1831c169.2-210,522-564.8,730-734
			c505.7-411.9,1207.1-766.7,1833.1-925.7c844.2-216.1,1651.6-216.1,2495.7,0c626,159.1,1298.9,499.6,1831,923.7
			c195.7,157,558.7,517.9,717.7,715.7c436.3,540.3,778.9,1213.2,942,1851.4c216.1,844.2,216.1,1651.6,0,2495.8
			c-159.1,626-513.8,1327.4-925.7,1833.1c-169.2,208-524,560.7-734,730c-528.1,428.2-1194.9,764.6-1831,927.7
			C5684.3,4993.3,5099.1,5042.3,4560.9,4991.3z M5584.4,4349c1525.2-212.1,2811.8-1221.4,3390.9-2658.9
			c116.2-289.5,224.3-697.3,265.1-1009.3c38.8-301.8,38.8-838,0-1137.8c-226.3-1720.9-1502.8-3156.4-3189-3580.5
			c-348.7-87.7-658.6-124.4-1052.1-124.4c-401.7,0-713.7,38.8-1076.6,130.5C3158-3833.6,2495.3-3446.1,1928.5-2865
			c-640.3,658.6-1042,1480.3-1168.4,2389.7c-40.8,293.6-42.8,846.2-2,1152c159,1219.3,842.1,2306.1,1890.2,3009.6
			c491.4,328.3,1139.8,575,1749.5,662.7C4673,4389.8,5301,4389.8,5584.4,4349z"/>
		<path class="st0" d="M4978.8,4112.5c-4.1-14.3-10.2-48.9-14.3-75.4c-4.1-38.7-22.4-55.1-77.5-69.3
			c-104-26.5-175.4-85.6-212.1-177.4c-40.8-104-40.8-181.5,0-285.5c36.7-89.7,97.9-142.7,218.2-185.6l75.4-26.5v-201.9V2889
			l-44.9,28.6c-46.9,30.6-71.4,67.3-122.3,189.6c-51,116.2-179.4,83.6-179.4-44.9c0-134.6,112.1-269.2,265.1-314
			c75.4-22.4,81.6-30.6,81.6-99.9c0-77.5,42.8-136.6,81.6-112.1c10.2,6.1,20.4,53,20.4,99.9c0,87.7,2.1,89.7,87.7,110.1
			c46.9,12.2,110.1,46.9,140.7,75.4c222.3,205.9,148.8,542.4-134.6,621.9l-93.8,26.5v179.4c0,179.4,0,181.5,42.8,157
			c24.5-14.3,61.2-65.2,81.6-112.1c32.6-75.4,44.8-87.7,99.9-87.7c91.8,0,120.3,73.4,71.4,183.5c-42.8,93.8-112.1,150.9-214.1,177.4
			c-61.2,16.3-73.4,28.5-81.6,87.7C5060.4,4128.8,4997.2,4167.5,4978.8,4112.5z M4968.7,3668c0-159-2-163.1-40.8-142.7
			c-114.2,61.2-128.5,218.2-24.5,275.3c30.6,16.3,57.1,28.5,61.2,30.6C4966.6,3831.1,4968.7,3757.7,4968.7,3668z M5170.5,3207.2
			c83.6-71.4,87.7-181.5,10.2-261c-93.8-93.8-110.1-73.4-110.1,130.5c0,101.9,8.2,183.5,18.4,183.5S5135.8,3235.7,5170.5,3207.2z"/>
		<path class="st0" d="M2487.2,2770.8c-208-93.8-230.4-379.3-42.8-511.8c136.6-97.9,356.8-44.8,434.3,104
			c42.8,83.6,38.7,222.3-10.2,301.8c-42.8,69.3-177.4,146.8-254.9,146.8C2591.2,2811.6,2534.1,2793.2,2487.2,2770.8z"/>
		<path class="st0" d="M7305.3,2791.2c-134.6-40.8-232.4-201.9-205.9-338.5c16.3-91.8,116.2-203.9,205.9-232.4
			c203.9-67.3,426.2,126.4,385.4,338.5c-16.3,93.8-118.3,205.9-210,232.4C7395.1,2813.6,7384.9,2813.6,7305.3,2791.2z"/>
		<path class="st0" d="M4850.4,2199.9c-36.7-22.4-83.6-69.3-106-106c-38.7-65.2-40.8-106-40.8-1231.6V-302l46.9-67.3
			c24.5-36.7,71.4-87.7,102-110.1c57.1-40.8,79.5-42.8,805.4-42.8c713.7,0,752.4,2,819.7,40.8c99.9,59.1,171.3,205.9,152.9,316
			c-8.2,44.9-38.8,112.1-67.3,146.8c-93.8,112.1-134.6,118.2-717.7,118.2h-530.1v964.5c0,923.7-2,964.5-40.8,1029.7
			c-57.1,91.8-155,146.8-265.1,146.8C4954.4,2240.7,4891.2,2224.4,4850.4,2199.9z"/>
		<path class="st0" d="M1537,882.7c-8.2-8.2-14.3-44.9-14.3-79.5c0-61.2-8.2-67.3-91.8-91.8C1265.7,664.5,1176,513.6,1202.5,326
			c14.3-116.2,67.3-181.5,199.8-242.6l120.3-55v-187.6c0-104-6.1-189.6-16.3-189.6c-42.8,0-108.1,71.4-128.5,144.8
			C1314.6,2,1122.9-53.1,1180-261.1c26.5-99.9,152.9-220.2,254.9-244.7c73.4-16.3,77.5-22.4,87.7-108.1c8.2-75.4,18.3-91.8,51-91.8
			c32.6,0,42.8,16.3,51,89.7c10.2,85.6,14.3,89.7,99.9,116.2c165.2,48.9,246.7,167.2,246.7,360.9c0,169.2-110.1,295.6-303.8,346.6
			c-38.7,10.2-42.8,26.5-42.8,185.6c0,173.3,0,175.4,42.8,155c22.4-14.3,57.1-57.1,73.4-97.9c48.9-120.3,124.4-142.7,181.5-57.1
			c28.5,46.9,28.5,57.1-10.2,142.7c-40.8,95.8-124.4,163.1-230.4,185.6c-44.9,10.2-55,24.5-61.2,87.7
			C1614.5,880.6,1571.7,917.3,1537,882.7z M1522.7,415.8c0-93.8-8.2-152.9-20.4-152.9c-42.8,0-122.3,99.9-122.3,152.9
			s79.5,152.9,122.3,152.9C1514.6,568.7,1522.7,509.5,1522.7,415.8z M1704.2-32.8c124.4-63.2,114.2-238.6-18.3-305.9l-61.2-32.6
			v185.6c0,99.9,4.1,183.5,10.2,183.5C1643-2.2,1673.6-16.5,1704.2-32.8z"/>
		<path class="st0" d="M8388.1,882.7c-8.2-8.2-14.3-44.9-14.3-79.5c0-61.2-6.1-67.3-89.7-89.7c-97.9-24.5-205.9-128.5-228.3-218.2
			c-22.4-87.7,4.1-244.7,48.9-309.9c26.5-36.7,89.7-79.5,157-108.1l112.1-46.9v-189.6c0-104-6.1-189.6-16.3-189.6
			c-40.8,0-106,69.3-128.5,138.7c-32.6,104-55,126.4-122.3,126.4c-89.7,0-116.2-73.4-71.4-193.7c40.8-106,138.7-193.7,250.8-226.3
			c71.4-20.4,77.5-28.5,87.7-112.1c8.2-73.4,18.4-89.7,51-89.7s42.8,16.3,51,89.7c10.2,83.6,16.3,93.8,81.6,110.1
			c97.9,24.5,191.7,99.9,234.5,189.6c46.9,97.9,34.7,291.6-22.4,371.1c-40.8,53-165.2,130.5-250.8,152.9
			c-38.7,10.2-42.8,26.5-42.8,185.6c0,173.3,2,175.4,42.8,155c22.4-12.2,59.1-63.2,79.5-114.2c30.6-69.3,51-89.7,87.7-89.7
			c63.2,0,95.8,36.7,95.8,112.1c0,99.9-87.7,208-203.9,248.8c-91.8,32.6-99.9,40.8-106,108.1
			C8465.5,880.6,8422.7,917.3,8388.1,882.7z M8373.8,415.8c0-167.2-14.3-183.5-95.8-108.1c-63.2,59.1-61.2,146.8,4.1,210
			C8359.5,597.2,8373.8,583,8373.8,415.8z M8575.7-55.3c101.9-83.6,81.6-220.2-38.8-283.4l-61.2-32.6v185.6
			c0,99.9,8.2,183.5,18.4,183.5S8541-26.7,8575.7-55.3z"/>
		<path class="st0" d="M2464.8-2061.6c-106-65.3-150.9-155-140.7-281.4c6.1-93.8,18.4-120.3,83.6-183.5
			c69.3-71.4,81.6-75.4,205.9-75.4c124.4,0,136.6,4.1,205.9,75.4c65.2,63.2,77.5,89.7,83.6,183.5c6.1,83.6-2,122.3-32.6,175.4
			C2780.8-2027,2599.3-1980.1,2464.8-2061.6z"/>
		<path class="st0" d="M7252.3-2057.6c-150.9-79.5-199.8-293.6-99.9-436.4c114.2-159,371.1-159,485.3,0
			c136.6,193.7-6.1,473.1-242.6,473.1C7356.3-2020.9,7291.1-2037.2,7252.3-2057.6z"/>
		<path class="st0" d="M4982.9-2379.7c-8.2-8.1-14.3-44.8-14.3-81.6c0-57.1-8.1-65.2-71.4-77.5c-93.8-18.3-205.9-118.3-236.5-210
			c-30.6-93.8-12.2-240.6,36.7-309.9c20.4-28.5,91.8-79.5,155-112.1l116.2-57.1v-193.7c0-185.5-2-189.6-40.8-169.2
			c-48.9,26.5-93.8,93.8-112.1,169.2c-18.3,73.4-81.6,108.1-144.8,77.5c-116.2-51-22.4-307.9,140.7-387.4
			c48.9-24.5,104-42.8,122.3-42.8c24.5,0,34.7-24.5,38.7-95.8c6.1-81.6,12.2-97.9,46.9-97.9c34.7,0,40.8,16.3,46.9,97.9
			c6.1,83.6,12.2,95.8,51,95.8c24.5,0,81.6,20.4,126.4,46.9c279.4,159,234.5,554.6-75.4,658.6l-97.9,32.6v171.3
			c0,93.8,8.2,171.3,16.3,171.3c26.5,0,85.6-69.3,122.3-146.8c40.8-79.5,104-95.8,157-36.7c32.6,34.7,34.7,51,12.2,120.3
			c-28.6,97.9-138.7,199.8-234.5,218.2c-63.2,10.2-71.4,20.4-77.5,85.6C5060.4-2381.8,5017.6-2345.1,4982.9-2379.7z M4968.7-2846.7
			c0-83.6-8.1-152.9-18.3-152.9c-40.8,0-104,75.4-116.2,136.6c-10.2,53-2,75.4,38.7,116.2
			C4954.4-2665.2,4968.7-2679.5,4968.7-2846.7z M5180.7-3307.5c73.4-57.1,75.4-181.5,2-252.9c-91.7-93.8-112.1-71.4-112.1,122.3
			C5070.6-3246.3,5082.8-3232.1,5180.7-3307.5z"/>
	</g>
</g>
</svg>
