<?xml version="1.0" encoding="utf-8"?>
<!-- Generator: Adobe Illustrator 23.0.2, SVG Export Plug-In . SVG Version: 6.00 Build 0)  -->
<svg version="1.1" id="Слой_1" xmlns="http://www.w3.org/2000/svg" xmlns:xlink="http://www.w3.org/1999/xlink" x="0px" y="0px"
	 viewBox="0 0 1000 1000" style="enable-background:new 0 0 1000 1000;" xml:space="preserve">
<style type="text/css">
	.st0{fill:#01AFFF;}
</style>
<g>
	<g transform="translate(0.000000,511.000000) scale(0.100000,-0.100000)">
		<path class="st0" d="M3204.4,4981.9c-92-40.4-87.5-35.9-964.6-1123.9c-426.2-529.4-782.9-964.6-794.1-964.6
			c-9,0-143.6,143.6-300.6,316.3c-159.3,179.5-314.1,329.8-352.2,345.5c-38.1,15.7-116.7,22.4-181.7,17.9
			c-197.4-20.2-318.5-186.2-280.4-388.1c11.2-58.3,112.2-186.2,408.3-520.5c215.4-244.5,433-482.3,482.3-527.2
			c157-143.6,345.5-136.8,495.8,22.4c76.3,78.5,1794.7,2205.2,1900.1,2351c62.8,87.5,67.3,246.8,9,345.5
			C3549.8,4990.9,3354.7,5049.2,3204.4,4981.9z"/>
		<path class="st0" d="M4081.5,3669.6c-100.9-67.3-157-172.7-157-298.4c0-121.1,47.1-199.6,166-280.4l74-51.6H6787
			c2561.9,0,2624.7,0,2707.7,44.9c94.2,47.1,181.7,190.7,181.7,293.9c-2.2,94.2-83,242.3-161.5,289.4
			c-74,44.9-105.4,44.9-2721.2,44.9C4227.3,3712.2,4144.3,3710,4081.5,3669.6z"/>
		<path class="st0" d="M568.4,1329.8c-74-38.1-114.4-78.5-150.3-152.5c-51.6-98.7-51.6-103.2-51.6-1189s0-1090.3,51.6-1189
			c26.9-53.8,78.5-118.9,112.2-143.6c62.8-47.1,87.5-47.1,1227.1-47.1s1164.3,0,1224.8,47.1c33.6,24.7,83,74,107.7,107.7
			c47.1,60.6,47.1,85.2,47.1,1224.9s0,1164.3-47.1,1227.1c-24.7,33.7-89.7,85.2-143.6,114.4c-98.7,49.4-103.2,49.4-1189,49.4
			C671.6,1379.2,667.1,1379.2,568.4,1329.8z M2452.8-11.7v-695.4h-695.4H1062v695.4v695.4h695.4h695.4V-11.7z"/>
		<path class="st0" d="M4090.5,275.4c-172.7-118.9-217.6-305.1-116.7-471.1c101-163.8-94.2-152.5,2835.6-152.5
			c2600,0,2631.4,0,2705.4,44.9c78.5,49.4,159.3,195.2,161.5,293.9c0,92-94.2,246.8-179.5,291.6c-74,40.4-188.4,42.6-2705.4,42.6
			h-2627L4090.5,275.4z"/>
		<path class="st0" d="M521.3-2084.5c-145.8-98.7-143.6-83-143.6-1341.5c0-1117.2,0-1137.4,47.1-1200.2
			c24.7-33.7,80.8-85.2,121.1-112.2l74-51.6h1130.6c1079,0,1135.1,2.2,1215.9,44.9c60.6,29.2,103.2,74,134.6,141.3
			c44.9,94.2,47.1,123.4,47.1,1195.7c0,1034.2-4.5,1101.5-44.9,1191.2c-24.7,56.1-74,114.4-116.7,141.3
			c-71.8,42.6-109.9,44.9-1229.3,44.9H602.1L521.3-2084.5z M2452.8-3410.4V-4117h-695.4H1062v706.6v706.7h695.4h695.4V-3410.4z"/>
		<path class="st0" d="M4121.9-3094.1c-83-35.9-154.8-123.4-188.4-226.6c-53.8-163.8,60.6-363.4,237.8-412.8
			c60.6-17.9,870.4-24.7,2644.9-24.7h2559.6l98.7,51.6c139.1,71.8,190.7,150.3,190.7,296.1c0,130.1-40.4,204.1-154.8,289.4
			c-60.6,47.1-74,47.1-2689.7,51.6C4653.5-3064.9,4180.2-3069.4,4121.9-3094.1z"/>
	</g>
</g>
</svg>
