<?xml version="1.0" encoding="utf-8"?>
<!-- Generator: Adobe Illustrator 23.0.2, SVG Export Plug-In . SVG Version: 6.00 Build 0)  -->
<svg version="1.1" id="Слой_1" xmlns="http://www.w3.org/2000/svg" xmlns:xlink="http://www.w3.org/1999/xlink" x="0px" y="0px"
	 viewBox="0 0 1000 1000" style="enable-background:new 0 0 1000 1000;" xml:space="preserve">
<style type="text/css">
	.st0{fill:#01AFFF;}
</style>
<g>
	<g transform="translate(0.000000,511.000000) scale(0.100000,-0.100000)">
		<path class="st0" d="M4387.1,4643.4v-368.9h607.1h607.1v368.9V5010h-607.1h-607.1V4643.4z"/>
		<path class="st0" d="M4552.9,3793.5C2759.7,3604.4,1265.3,2313.2,824,571.3c-168.1-670.1-168.1-1450,0-2120.1
			c415.6-1634.4,1774.5-2892.9,3434.7-3177.8c919.9-156.4,1825.9-23.4,2661.8,396.9C8144-3715.6,8979.9-2597.2,9234.4-1224.3
			c49,270.8,70,959.6,35,1225.8c-109.7,821.9-368.9,1466.3-852.2,2113.1C7534.5,3293.8,6030.8,3947.6,4552.9,3793.5z M5647.9,3037
			c1267.9-242.8,2337.2-1181.5,2743.5-2402.6c100.4-303.5,147.1-532.4,175.1-868.6c25.7-322.2,2.3-406.3-123.8-467
			c-95.7-46.7-175.1-32.7-263.8,44.4c-58.4,51.4-65.4,72.4-81.7,319.9c-11.7,147.1-37.4,347.9-56.1,448.3
			c-137.8,670.1-518.4,1319.2-1032,1748.8c-551,467-1153.5,707.5-1886.6,756.5c-238.2,16.3-305.9,42-352.6,133.1
			c-53.7,105.1-39.7,179.8,51.4,270.8l81.7,81.7l273.2-14C5325.7,3081.4,5538.2,3058,5647.9,3037z M5237,186.1
			c147.1-51.4,345.6-233.5,406.3-378.2c70-161.1,84-319.9,42-471.7l-35-128.4l863.9-866.2l861.6-863.9v-100.4
			c0-123.7-28-179.8-121.4-226.5c-149.4-77.1-154.1-72.4-1078.7,852.2l-859.2,859.2l-107.4-30.4c-249.8-77.1-497.4-21-688.8,154.1
			c-168.1,151.8-235.8,303.5-235.8,525.4c0,219.5,67.7,373.6,233.5,523c70,63,170.4,130.7,224.2,149.4
			C4875.1,230.4,5099.2,232.8,5237,186.1z M2171.2-332.3c91.1-102.7,91.1-210.1,0-312.9l-67.7-77.1l-420.3-7
			c-469.3-9.3-532.4,7-600.1,135.4c-44.4,84.1-44.4,123.8,0,210.2c65.4,128.4,119.1,140.1,590.7,133.1l429.6-4.7L2171.2-332.3z
			 M5148.3-3311.6l79.4-79.4v-441.3c0-490.3-7-520.7-154.1-581.4c-67.7-28-91-28-158.8,0c-144.8,60.7-154.1,91.1-154.1,574.4
			c2.3,462.3,14,516,119.1,574.4C4977.8-3211.2,5061.9-3225.2,5148.3-3311.6z"/>
		<path class="st0" d="M8197.7,3555.4l-263.8-266.2l219.5-191.5c121.4-107.4,308.2-291.9,413.3-413.3
			C8674,2563,8767.4,2465,8774.4,2465c9.3,0,130.7,116.7,270.8,256.8l256.8,256.8l-420.3,420.3l-420.3,420.3L8197.7,3555.4z"/>
	</g>
</g>
</svg>
