<?xml version="1.0" standalone="no"?>
<!DOCTYPE svg PUBLIC "-//W3C//DTD SVG 20010904//EN"
 "http://www.w3.org/TR/2001/REC-SVG-20010904/DTD/svg10.dtd">
<svg version="1.0" xmlns="http://www.w3.org/2000/svg"
 width="544.000000pt" height="544.000000pt" viewBox="0 0 544.000000 544.000000"
 preserveAspectRatio="xMidYMid meet">
<metadata>
Created by potrace 1.11, written by Peter Selinger 2001-2013
</metadata>
<g transform="translate(0.000000,544.000000) scale(0.100000,-0.100000)"
fill="#000000" stroke="none">
<path d="M2814 5266 c-59 -26 -102 -113 -96 -191 1 -5 1 -53 1 -105 1 -52 1
-144 2 -205 0 -60 0 -117 0 -125 0 -8 0 -42 0 -75 0 -33 0 -85 0 -115 -1 -76
0 -233 0 -245 1 -5 0 -32 0 -60 -2 -53 -2 -157 0 -340 0 -60 0 -117 0 -125 0
-8 0 -42 0 -75 0 -33 0 -85 0 -115 -1 -76 0 -233 0 -245 1 -5 1 -32 0 -60 0
-27 -1 -90 -1 -138 0 -49 -2 -92 -5 -97 -3 -5 -1 -11 3 -14 5 -3 7 -17 4 -31
-5 -28 -8 -27 106 -24 20 1 44 1 52 0 8 0 40 0 70 0 30 1 62 1 70 0 8 -1 31
-1 50 0 19 1 42 1 50 0 8 0 40 0 70 0 30 1 62 1 70 0 8 -1 31 -1 50 0 19 1 42
1 50 0 8 0 40 0 70 0 30 1 62 1 70 0 8 -1 31 -1 50 0 19 1 42 1 50 0 8 0 40 0
70 0 30 1 62 1 70 0 8 -1 31 -1 50 0 19 1 42 1 50 0 8 0 40 0 70 0 30 1 62 1
70 0 8 -1 31 -1 50 0 19 1 42 1 50 0 8 0 40 0 70 0 30 1 62 1 70 0 8 -1 31 -1
50 0 19 1 42 1 50 0 8 0 40 0 70 0 30 1 62 1 70 0 8 -1 31 -1 50 0 19 1 42 1
50 0 8 0 40 0 70 0 30 1 61 1 68 0 30 -2 39 -3 77 -2 22 1 49 1 60 1 11 -1 42
0 69 0 26 1 50 -1 53 -3 13 -13 99 32 127 67 29 35 31 43 30 114 -1 75 -8 161
-19 212 -3 14 -8 40 -11 59 -21 127 -93 363 -145 480 -16 35 -29 70 -29 77 0
8 -4 14 -8 14 -4 0 -13 15 -20 33 -26 72 -208 364 -269 432 -10 11 -40 47 -68
80 -56 68 -215 227 -263 265 -18 14 -47 38 -65 53 -41 36 -194 141 -277 191
-265 157 -614 277 -910 312 -112 13 -187 13 -216 0z"/>
<path d="M1950 4913 c-63 -13 -128 -26 -145 -29 -45 -8 -299 -94 -309 -105 -6
-5 -16 -9 -23 -9 -18 0 -219 -101 -302 -151 -92 -56 -103 -63 -115 -72 -179
-129 -250 -190 -369 -311 -238 -243 -421 -529 -536 -841 -27 -71 -52 -143 -56
-160 -10 -43 -13 -53 -30 -125 -22 -86 -24 -99 -30 -140 -3 -19 -7 -46 -10
-60 -20 -98 -27 -514 -11 -620 28 -183 47 -279 67 -340 4 -14 14 -45 20 -70
16 -56 14 -50 26 -80 5 -14 18 -50 29 -80 10 -30 22 -56 27 -58 4 -2 7 -10 7
-19 0 -14 68 -155 120 -248 49 -89 190 -292 233 -337 7 -7 23 -26 35 -43 56
-72 216 -227 332 -322 75 -60 270 -197 270 -188 0 2 15 -6 33 -18 19 -12 65
-38 103 -57 38 -19 72 -39 75 -43 3 -5 10 -9 15 -9 11 0 32 -8 99 -38 68 -29
302 -107 345 -114 8 -1 24 -5 35 -9 11 -3 36 -8 55 -11 19 -3 46 -8 60 -11 14
-3 43 -7 65 -10 22 -3 63 -9 90 -12 107 -15 566 -6 594 11 3 2 26 7 51 10 61
8 102 16 110 21 4 2 22 7 41 10 167 28 519 173 694 285 17 11 37 23 45 27 8 3
17 9 20 13 3 3 22 16 43 29 78 48 112 134 81 208 -8 20 -331 349 -804 823
-709 709 -790 793 -791 823 -1 17 -1 36 1 42 1 5 1 59 0 120 0 60 0 128 1 150
0 22 1 46 0 53 -1 6 -1 18 -2 25 -1 13 0 111 2 167 1 19 1 40 1 45 -5 81 -6
255 -2 255 3 0 3 32 0 71 -3 39 -3 74 0 79 3 4 3 51 0 104 -3 53 -3 96 0 96 3
0 5 27 5 60 0 33 -2 60 -5 60 -4 0 -4 107 1 120 1 3 1 8 1 11 -1 3 -1 24 -1
45 -1 65 -2 134 -4 227 -1 48 2 87 6 87 5 0 6 4 3 8 -5 9 -7 62 -7 252 0 63 0
120 0 125 -1 6 0 30 0 55 1 25 1 60 1 79 1 76 -70 159 -143 165 -18 1 -84 -8
-147 -21z"/>
<path d="M2994 2401 c-2 -2 -23 -4 -46 -3 l-43 2 790 -791 c435 -434 803 -799
818 -811 36 -26 112 -32 155 -11 27 13 141 125 223 219 95 109 208 277 287
424 59 111 131 272 139 313 1 10 10 31 18 46 8 16 16 39 19 52 3 13 13 51 22
84 22 81 32 124 49 215 26 136 6 199 -80 246 -20 11 -101 16 -210 13 -27 0
-54 -1 -60 0 -5 0 -53 0 -105 0 -52 1 -147 1 -210 2 -63 0 -122 0 -130 0 -8 0
-64 0 -125 0 -60 0 -117 0 -125 0 -8 0 -42 0 -75 0 -33 0 -64 0 -70 0 -11 0
-137 0 -170 0 -35 0 -140 0 -150 0 -11 1 -208 0 -240 0 -11 0 -63 0 -115 0
-52 1 -102 1 -110 0 -17 0 -190 0 -205 0 -5 1 -32 0 -60 0 -27 -1 -81 0 -118
1 -38 2 -71 1 -73 -1z"/>
</g>
</svg>
